<svg width="254" height="300" viewBox="0 0 254 300" fill="none" xmlns="http://www.w3.org/2000/svg">
<path opacity="0.3" d="M29.3855 297.034C28.6015 297.034 28.0042 296.829 27.5935 296.418C27.1829 296.008 26.9775 295.401 26.9775 294.598V279.338C26.9775 278.517 27.1829 277.892 27.5935 277.462C28.0042 277.014 28.5455 276.79 29.2175 276.79C29.8149 276.79 30.2815 276.902 30.6175 277.126C30.9535 277.35 31.3269 277.724 31.7375 278.246L40.6135 289.334H39.8295V279.198C39.8295 278.414 40.0255 277.817 40.4175 277.406C40.8282 276.996 41.4255 276.79 42.2095 276.79C42.9935 276.79 43.5815 276.996 43.9735 277.406C44.3842 277.817 44.5895 278.414 44.5895 279.198V294.71C44.5895 295.42 44.4029 295.989 44.0295 296.418C43.6562 296.829 43.1522 297.034 42.5175 297.034C41.8829 297.034 41.3789 296.922 41.0055 296.698C40.6509 296.456 40.2682 296.082 39.8575 295.578L30.9815 284.462H31.7655V294.598C31.7655 295.401 31.5602 296.008 31.1495 296.418C30.7575 296.829 30.1695 297.034 29.3855 297.034ZM54.8323 297.09C53.3016 297.09 51.967 296.801 50.8283 296.222C49.6896 295.644 48.803 294.813 48.1683 293.73C47.5336 292.648 47.2163 291.369 47.2163 289.894C47.2163 288.774 47.3936 287.776 47.7483 286.898C48.103 286.002 48.6163 285.246 49.2883 284.63C49.9603 283.996 50.763 283.52 51.6963 283.202C52.6296 282.866 53.675 282.698 54.8323 282.698C56.363 282.698 57.6976 282.988 58.8363 283.566C59.975 284.145 60.8523 284.976 61.4683 286.058C62.103 287.122 62.4203 288.401 62.4203 289.894C62.4203 290.996 62.243 291.994 61.8883 292.89C61.5336 293.786 61.0203 294.552 60.3483 295.186C59.695 295.802 58.8923 296.278 57.9403 296.614C57.007 296.932 55.971 297.09 54.8323 297.09ZM54.8323 293.422C55.3363 293.422 55.7843 293.301 56.1763 293.058C56.5683 292.797 56.867 292.414 57.0723 291.91C57.2963 291.388 57.4083 290.716 57.4083 289.894C57.4083 288.644 57.1656 287.748 56.6803 287.206C56.195 286.646 55.579 286.366 54.8323 286.366C54.3283 286.366 53.8803 286.488 53.4883 286.73C53.0963 286.973 52.7883 287.356 52.5643 287.878C52.3403 288.382 52.2283 289.054 52.2283 289.894C52.2283 291.126 52.471 292.022 52.9563 292.582C53.4416 293.142 54.067 293.422 54.8323 293.422ZM75.7398 296.782C74.8624 296.782 74.1904 296.558 73.7238 296.11C73.2758 295.644 73.0518 294.981 73.0518 294.122V279.702C73.0518 278.844 73.2758 278.19 73.7238 277.742C74.1904 277.276 74.8624 277.042 75.7398 277.042H81.2278C84.6624 277.042 87.3131 277.901 89.1798 279.618C91.0651 281.336 92.0078 283.762 92.0078 286.898C92.0078 288.466 91.7651 289.866 91.2798 291.098C90.7944 292.312 90.0944 293.348 89.1798 294.206C88.2651 295.046 87.1358 295.69 85.7918 296.138C84.4664 296.568 82.9451 296.782 81.2278 296.782H75.7398ZM78.2038 292.61H80.8918C81.8811 292.61 82.7304 292.489 83.4398 292.246C84.1678 292.004 84.7651 291.649 85.2318 291.182C85.7171 290.716 86.0718 290.128 86.2958 289.418C86.5384 288.709 86.6598 287.869 86.6598 286.898C86.6598 284.957 86.1838 283.529 85.2318 282.614C84.2798 281.681 82.8331 281.214 80.8918 281.214H78.2038V292.61ZM99.5155 297.09C98.4515 297.09 97.5088 296.894 96.6875 296.502C95.8848 296.11 95.2502 295.578 94.7835 294.906C94.3355 294.216 94.1115 293.432 94.1115 292.554C94.1115 291.546 94.3728 290.753 94.8955 290.174C95.4182 289.596 96.2582 289.185 97.4155 288.942C98.5728 288.681 100.113 288.55 102.035 288.55H103.575V290.902H102.035C101.307 290.902 100.701 290.958 100.215 291.07C99.7488 291.164 99.4035 291.322 99.1795 291.546C98.9555 291.752 98.8435 292.022 98.8435 292.358C98.8435 292.788 98.9928 293.142 99.2915 293.422C99.6088 293.702 100.057 293.842 100.635 293.842C101.102 293.842 101.513 293.74 101.867 293.534C102.241 293.329 102.539 293.049 102.763 292.694C102.987 292.321 103.099 291.892 103.099 291.406V288.158C103.099 287.486 102.922 287.01 102.567 286.73C102.231 286.45 101.643 286.31 100.803 286.31C100.355 286.31 99.8515 286.366 99.2915 286.478C98.7315 286.572 98.1062 286.749 97.4155 287.01C96.9115 287.197 96.4822 287.225 96.1275 287.094C95.7728 286.964 95.4928 286.74 95.2875 286.422C95.1008 286.105 95.0075 285.76 95.0075 285.386C95.0262 285.013 95.1475 284.658 95.3715 284.322C95.6142 283.986 95.9782 283.725 96.4635 283.538C97.3595 283.202 98.1808 282.978 98.9275 282.866C99.6928 282.754 100.393 282.698 101.027 282.698C102.558 282.698 103.818 282.922 104.807 283.37C105.815 283.8 106.562 284.472 107.047 285.386C107.551 286.282 107.803 287.44 107.803 288.858V294.514C107.803 295.336 107.607 295.961 107.215 296.39C106.823 296.82 106.254 297.034 105.507 297.034C104.742 297.034 104.154 296.82 103.743 296.39C103.351 295.961 103.155 295.336 103.155 294.514V293.786L103.323 294.178C103.23 294.776 103.015 295.289 102.679 295.718C102.343 296.148 101.905 296.484 101.363 296.726C100.822 296.969 100.206 297.09 99.5155 297.09ZM117.866 297.09C116.466 297.09 115.308 296.876 114.394 296.446C113.498 296.017 112.826 295.373 112.378 294.514C111.93 293.637 111.706 292.545 111.706 291.238V286.674H110.754C110.156 286.674 109.69 286.516 109.354 286.198C109.036 285.881 108.878 285.424 108.878 284.826C108.878 284.229 109.036 283.781 109.354 283.482C109.69 283.165 110.156 283.006 110.754 283.006H111.706V281.27C111.706 280.449 111.92 279.824 112.35 279.394C112.779 278.965 113.395 278.75 114.198 278.75C115 278.75 115.616 278.965 116.046 279.394C116.475 279.824 116.69 280.449 116.69 281.27V283.006H118.986C119.602 283.006 120.068 283.165 120.386 283.482C120.722 283.781 120.89 284.229 120.89 284.826C120.89 285.424 120.722 285.881 120.386 286.198C120.068 286.516 119.602 286.674 118.986 286.674H116.69V291.07C116.69 291.761 116.848 292.274 117.166 292.61C117.502 292.928 118.024 293.086 118.734 293.086C118.995 293.086 119.247 293.058 119.49 293.002C119.732 292.946 119.956 292.918 120.162 292.918C120.46 292.9 120.703 292.993 120.89 293.198C121.076 293.385 121.17 293.824 121.17 294.514C121.17 295.074 121.086 295.55 120.918 295.942C120.75 296.316 120.451 296.586 120.022 296.754C119.76 296.848 119.406 296.922 118.958 296.978C118.51 297.053 118.146 297.09 117.866 297.09ZM127.351 297.09C126.287 297.09 125.345 296.894 124.523 296.502C123.721 296.11 123.086 295.578 122.619 294.906C122.171 294.216 121.947 293.432 121.947 292.554C121.947 291.546 122.209 290.753 122.731 290.174C123.254 289.596 124.094 289.185 125.251 288.942C126.409 288.681 127.949 288.55 129.871 288.55H131.411V290.902H129.871C129.143 290.902 128.537 290.958 128.051 291.07C127.585 291.164 127.239 291.322 127.015 291.546C126.791 291.752 126.679 292.022 126.679 292.358C126.679 292.788 126.829 293.142 127.127 293.422C127.445 293.702 127.893 293.842 128.471 293.842C128.938 293.842 129.349 293.74 129.703 293.534C130.077 293.329 130.375 293.049 130.599 292.694C130.823 292.321 130.935 291.892 130.935 291.406V288.158C130.935 287.486 130.758 287.01 130.403 286.73C130.067 286.45 129.479 286.31 128.639 286.31C128.191 286.31 127.687 286.366 127.127 286.478C126.567 286.572 125.942 286.749 125.251 287.01C124.747 287.197 124.318 287.225 123.963 287.094C123.609 286.964 123.329 286.74 123.123 286.422C122.937 286.105 122.843 285.76 122.843 285.386C122.862 285.013 122.983 284.658 123.207 284.322C123.45 283.986 123.814 283.725 124.299 283.538C125.195 283.202 126.017 282.978 126.763 282.866C127.529 282.754 128.229 282.698 128.863 282.698C130.394 282.698 131.654 282.922 132.643 283.37C133.651 283.8 134.398 284.472 134.883 285.386C135.387 286.282 135.639 287.44 135.639 288.858V294.514C135.639 295.336 135.443 295.961 135.051 296.39C134.659 296.82 134.09 297.034 133.343 297.034C132.578 297.034 131.99 296.82 131.579 296.39C131.187 295.961 130.991 295.336 130.991 294.514V293.786L131.159 294.178C131.066 294.776 130.851 295.289 130.515 295.718C130.179 296.148 129.741 296.484 129.199 296.726C128.658 296.969 128.042 297.09 127.351 297.09ZM149.429 297.034C148.608 297.034 147.964 296.81 147.497 296.362C147.049 295.896 146.825 295.233 146.825 294.374V279.702C146.825 278.844 147.049 278.19 147.497 277.742C147.964 277.276 148.636 277.042 149.513 277.042H158.837C159.509 277.042 160.013 277.21 160.349 277.546C160.685 277.882 160.853 278.368 160.853 279.002C160.853 279.656 160.685 280.16 160.349 280.514C160.013 280.85 159.509 281.018 158.837 281.018H151.977V284.994H158.221C158.875 284.994 159.369 285.162 159.705 285.498C160.06 285.834 160.237 286.32 160.237 286.954C160.237 287.608 160.06 288.102 159.705 288.438C159.369 288.774 158.875 288.942 158.221 288.942H151.977V294.374C151.977 296.148 151.128 297.034 149.429 297.034ZM169.239 297.09C167.708 297.09 166.373 296.801 165.235 296.222C164.096 295.644 163.209 294.813 162.575 293.73C161.94 292.648 161.623 291.369 161.623 289.894C161.623 288.774 161.8 287.776 162.155 286.898C162.509 286.002 163.023 285.246 163.695 284.63C164.367 283.996 165.169 283.52 166.103 283.202C167.036 282.866 168.081 282.698 169.239 282.698C170.769 282.698 172.104 282.988 173.243 283.566C174.381 284.145 175.259 284.976 175.875 286.058C176.509 287.122 176.827 288.401 176.827 289.894C176.827 290.996 176.649 291.994 176.295 292.89C175.94 293.786 175.427 294.552 174.755 295.186C174.101 295.802 173.299 296.278 172.347 296.614C171.413 296.932 170.377 297.09 169.239 297.09ZM169.239 293.422C169.743 293.422 170.191 293.301 170.583 293.058C170.975 292.797 171.273 292.414 171.479 291.91C171.703 291.388 171.815 290.716 171.815 289.894C171.815 288.644 171.572 287.748 171.087 287.206C170.601 286.646 169.985 286.366 169.239 286.366C168.735 286.366 168.287 286.488 167.895 286.73C167.503 286.973 167.195 287.356 166.971 287.878C166.747 288.382 166.635 289.054 166.635 289.894C166.635 291.126 166.877 292.022 167.363 292.582C167.848 293.142 168.473 293.422 169.239 293.422ZM184.262 297.09C183.068 297.09 182.088 296.876 181.322 296.446C180.557 295.998 179.978 295.336 179.586 294.458C179.213 293.581 179.026 292.47 179.026 291.126V285.246C179.026 284.425 179.241 283.809 179.67 283.398C180.1 282.969 180.716 282.754 181.518 282.754C182.321 282.754 182.937 282.969 183.366 283.398C183.796 283.809 184.01 284.425 184.01 285.246V291.266C184.01 291.938 184.15 292.442 184.43 292.778C184.71 293.114 185.149 293.282 185.746 293.282C186.418 293.282 186.969 293.04 187.398 292.554C187.828 292.069 188.042 291.425 188.042 290.622V285.246C188.042 284.425 188.257 283.809 188.686 283.398C189.116 282.969 189.732 282.754 190.534 282.754C191.337 282.754 191.953 282.969 192.382 283.398C192.812 283.809 193.026 284.425 193.026 285.246V294.514C193.026 296.194 192.224 297.034 190.618 297.034C189.834 297.034 189.228 296.82 188.798 296.39C188.369 295.961 188.154 295.336 188.154 294.514V292.89L188.602 294.262C188.192 295.177 187.613 295.877 186.866 296.362C186.138 296.848 185.27 297.09 184.262 297.09ZM198.391 297.034C197.607 297.034 197 296.82 196.571 296.39C196.141 295.961 195.927 295.336 195.927 294.514V285.246C195.927 284.444 196.132 283.828 196.543 283.398C196.972 282.969 197.579 282.754 198.363 282.754C199.147 282.754 199.744 282.969 200.155 283.398C200.565 283.828 200.771 284.444 200.771 285.246V286.562L200.463 285.414C200.911 284.537 201.545 283.865 202.367 283.398C203.207 282.932 204.159 282.698 205.223 282.698C206.324 282.698 207.229 282.913 207.939 283.342C208.648 283.753 209.18 284.406 209.535 285.302C209.889 286.18 210.067 287.29 210.067 288.634V294.514C210.067 295.336 209.852 295.961 209.423 296.39C208.993 296.82 208.377 297.034 207.575 297.034C206.772 297.034 206.156 296.82 205.727 296.39C205.297 295.961 205.083 295.336 205.083 294.514V288.83C205.083 287.99 204.933 287.393 204.635 287.038C204.355 286.684 203.935 286.506 203.375 286.506C202.628 286.506 202.031 286.749 201.583 287.234C201.135 287.701 200.911 288.336 200.911 289.138V294.514C200.911 296.194 200.071 297.034 198.391 297.034ZM218.283 297.09C217.107 297.09 216.062 296.801 215.147 296.222C214.251 295.644 213.542 294.813 213.019 293.73C212.515 292.648 212.263 291.369 212.263 289.894C212.263 288.382 212.515 287.094 213.019 286.03C213.542 284.966 214.251 284.145 215.147 283.566C216.062 282.988 217.107 282.698 218.283 282.698C219.31 282.698 220.234 282.941 221.055 283.426C221.877 283.912 222.427 284.537 222.707 285.302H222.399V279.31C222.399 278.489 222.614 277.864 223.043 277.434C223.473 277.005 224.089 276.79 224.891 276.79C225.675 276.79 226.282 277.005 226.711 277.434C227.159 277.864 227.383 278.489 227.383 279.31V294.514C227.383 295.336 227.169 295.961 226.739 296.39C226.329 296.82 225.722 297.034 224.919 297.034C224.135 297.034 223.529 296.82 223.099 296.39C222.67 295.961 222.455 295.336 222.455 294.514V292.918L222.763 294.29C222.502 295.13 221.951 295.812 221.111 296.334C220.29 296.838 219.347 297.09 218.283 297.09ZM219.879 293.422C220.383 293.422 220.831 293.301 221.223 293.058C221.615 292.797 221.914 292.414 222.119 291.91C222.343 291.388 222.455 290.716 222.455 289.894C222.455 288.644 222.213 287.748 221.727 287.206C221.242 286.646 220.626 286.366 219.879 286.366C219.375 286.366 218.927 286.488 218.535 286.73C218.143 286.973 217.835 287.356 217.611 287.878C217.387 288.382 217.275 289.054 217.275 289.894C217.275 291.126 217.518 292.022 218.003 292.582C218.489 293.142 219.114 293.422 219.879 293.422Z" fill="#101B2B"/>
<path d="M139.143 189.22H80.751V234.258H139.143V189.22Z" fill="#EBEBEB"/>
<path d="M124.516 233.938C124.596 233.938 124.661 223.9 124.661 211.518C124.661 199.135 124.596 189.097 124.516 189.097C124.435 189.097 124.37 199.135 124.37 211.518C124.37 223.9 124.435 233.938 124.516 233.938Z" fill="#E0E0E0"/>
<path d="M134.193 224.009H129.719V229.072H134.193V224.009Z" fill="#FAFAFA"/>
<path d="M105.201 189.338H98.5686V198.948H105.201V189.338Z" fill="#E0E0E0"/>
<path d="M105.201 224.513H98.5686V234.123H105.201V224.513Z" fill="#E0E0E0"/>
<path d="M245.101 177.929H171.47V234.717H245.101V177.929Z" fill="#EBEBEB"/>
<path d="M226.656 234.314C226.578 234.314 226.51 221.654 226.51 206.046C226.51 190.437 226.578 177.772 226.656 177.772C226.735 177.772 226.802 190.426 226.802 206.046C226.802 221.665 226.735 234.314 226.656 234.314Z" fill="#E0E0E0"/>
<path d="M238.861 221.789H233.216V228.169H238.861V221.789Z" fill="#FAFAFA"/>
<path d="M202.301 178.075H193.936V190.19H202.301V178.075Z" fill="#E0E0E0"/>
<path d="M202.301 222.428H193.936V234.544H202.301V222.428Z" fill="#E0E0E0"/>
<path d="M32.7867 179.6C35.7694 178.064 39.2735 177.862 42.5814 178.411C44.3587 178.703 46.2144 179.235 47.4198 180.57C48.6252 181.904 48.8607 184.253 47.4703 185.403C46.6461 186.087 45.4912 186.187 44.4203 186.176C41.8301 186.148 38.9596 185.688 36.8851 187.247C35.7021 188.139 34.9172 189.613 33.5212 190.05C32.1252 190.488 30.5834 189.664 29.8489 188.419C29.1757 187.12 29.0272 185.613 29.434 184.208C29.6007 183.234 29.9899 182.311 30.5714 181.512C31.153 180.713 31.911 180.058 32.7867 179.6Z" fill="#EBEBEB"/>
<path d="M25.9636 166.419C27.7858 169.02 31.3291 168.162 32.9718 166.57C34.6145 164.978 35.3098 162.679 35.9377 160.481C37.3786 155.463 38.8363 150.204 37.7654 145.091C37.5059 143.543 36.8251 142.096 35.7975 140.909C35.276 140.325 34.611 139.889 33.8684 139.642C33.1258 139.395 32.3316 139.346 31.5646 139.502C29.7761 139.973 28.6716 141.744 27.8643 143.387C25.5002 148.3 24.261 153.678 24.2368 159.13C24.2368 161.664 24.5284 164.327 25.958 166.419" fill="#EBEBEB"/>
<path d="M20.957 170.153C22.9361 167.803 23.3118 164.378 22.4315 161.44C21.5513 158.502 19.561 155.996 17.2679 153.955C14.57 151.553 11.4297 149.7 8.02269 148.5C6.71367 147.972 5.30646 147.731 3.89627 147.794C3.18731 147.835 2.49906 148.048 1.89133 148.415C1.2836 148.783 0.77475 149.293 0.408993 149.902C-0.560941 151.758 0.369747 154.006 1.37893 155.845C3.15748 159.081 5.1877 162.172 7.45082 165.09C9.27295 167.433 11.3754 169.749 14.1282 170.809C16.881 171.868 19.7796 171.745 21.2542 169.822" fill="#EBEBEB"/>
<path d="M25.8403 205.676C25.9359 205.288 25.9904 204.892 26.0029 204.493L26.3225 201.286C26.4823 199.697 26.7237 198.118 27.0457 196.554C27.4683 194.642 28.0439 192.767 28.7669 190.948C29.4755 189.139 30.4362 187.441 31.6206 185.902C32.5846 184.646 33.8161 183.622 35.2257 182.902C36.1821 182.428 37.2078 182.108 38.2644 181.955C38.6617 181.94 39.0563 181.884 39.4418 181.786C39.043 181.743 38.6407 181.743 38.242 181.786C37.1453 181.87 36.0725 182.149 35.0743 182.611C33.5888 183.313 32.2859 184.349 31.2674 185.638C30.0326 187.202 29.0368 188.94 28.3128 190.796C27.5888 192.637 27.026 194.537 26.6308 196.476C26.325 198.059 26.1153 199.66 26.0029 201.269C25.902 202.637 25.8627 203.747 25.8403 204.515C25.7997 204.901 25.7997 205.29 25.8403 205.676Z" fill="#E0E0E0"/>
<path d="M26.059 203.192C26.0927 203.007 26.104 202.819 26.0926 202.632C26.0926 202.217 26.0926 201.701 26.0926 201.062C26.0926 199.699 26.0926 197.731 26.1599 195.298C26.2776 190.432 26.7205 185.206 27.5111 177.806C28.2792 170.859 29.3052 162.78 30.3928 157.527C30.6283 156.333 30.8582 155.284 31.0824 154.314C31.3067 153.344 31.4749 152.559 31.6431 151.898L32.0075 150.373C32.0619 150.191 32.0939 150.002 32.1028 149.812C32.019 149.976 31.955 150.149 31.9122 150.328L31.4581 151.831C31.2562 152.481 31.0488 153.294 30.8133 154.23C30.5778 155.167 30.3087 156.243 30.0508 157.432C28.7065 163.645 27.6959 169.926 27.0233 176.247C26.2103 183.648 25.8459 190.387 25.8123 195.265C25.7842 197.703 25.8123 199.677 25.8964 201.039L25.9917 202.609C25.9893 202.806 26.0119 203.002 26.059 203.192Z" fill="#E0E0E0"/>
<path d="M26.0927 190.196C26.1356 189.651 26.1356 189.104 26.0927 188.559C26.031 187.505 25.8852 185.986 25.5881 184.119C25.2285 181.936 24.7455 179.776 24.1416 177.649C23.4362 175.03 22.5309 172.47 21.4336 169.99C19.5553 165.418 16.8614 161.225 13.4835 157.616C12.8985 156.998 12.2749 156.418 11.6166 155.878C11.3306 155.637 11.0559 155.396 10.8204 155.2L10.0635 154.707C9.62773 154.376 9.16657 154.079 8.68433 153.821C8.60583 153.927 10.641 155.122 13.2088 157.858C16.4746 161.498 19.095 165.67 20.9571 170.192C22.0309 172.657 22.9393 175.191 23.6762 177.778C24.2949 179.887 24.8076 182.025 25.2124 184.186C25.5488 186.03 25.7731 187.55 25.8628 188.581C25.8978 189.125 25.9747 189.665 26.0927 190.196Z" fill="#E0E0E0"/>
<path d="M12.6648 211.147L13.9655 228.988H36.8851L38.1858 211.147H12.6648Z" fill="#EBEBEB"/>
<path d="M40.9218 204.117H10.4502V211.148H40.9218V204.117Z" fill="#EBEBEB"/>
<path d="M10.4502 228.309V230.255H11.8799H40.4172V228.309H10.4502Z" fill="#E0E0E0"/>
<path d="M13.2815 233.473L11.8799 230.042H39.324L37.6868 233.473H13.2815Z" fill="#E0E0E0"/>
<path d="M37.7601 216.984C37.7319 217.043 37.6961 217.097 37.6536 217.147L37.3116 217.601L35.9772 219.283L35.9155 219.361L35.8595 219.283L32.5796 214.741H32.7702L29.5409 219.316L29.44 219.462L29.3278 219.327L25.4985 214.769H25.7172L25.5042 215.033L22.0786 219.327L21.9664 219.473L21.8375 219.339L18.6305 214.741H18.8211L14.8405 219.277L14.7676 219.356L14.7115 219.266L13.4669 217.175L13.1473 216.614C13.1076 216.553 13.0756 216.487 13.052 216.418C13.1042 216.472 13.1494 216.532 13.1866 216.597L13.5398 217.158L14.8461 219.227H14.7228L18.6473 214.635L18.7483 214.517L18.838 214.64L22.0954 219.193H21.8375L25.2519 214.893L25.4649 214.629L25.5714 214.495L25.6836 214.629L29.5016 219.193H29.2886L32.5516 214.64L32.6469 214.506L32.7422 214.64L35.9772 219.227H35.8539L37.2443 217.545L37.6143 217.113C37.7096 217.023 37.7545 216.984 37.7601 216.984Z" fill="#F5F5F5"/>
<path d="M25.6779 211.17C32.7625 211.17 38.5057 211.107 38.5057 211.03C38.5057 210.952 32.7625 210.889 25.6779 210.889C18.5933 210.889 12.8501 210.952 12.8501 211.03C12.8501 211.107 18.5933 211.17 25.6779 211.17Z" fill="#F5F5F5"/>
<path d="M199.278 8.71506L194.58 8.74048L194.707 32.1195L199.405 32.094L199.278 8.71506Z" fill="#E0E0E0"/>
<path d="M166.044 8.78305L153.878 8.84888L153.948 21.755L166.114 21.6891L166.044 8.78305Z" fill="#EBEBEB"/>
<path d="M178.153 8.71176L165.987 8.77759L166.057 21.6837L178.223 21.6179L178.153 8.71176Z" fill="#F5F5F5"/>
<path d="M153.9 12.4177C161.984 12.485 170.091 12.4177 178.176 12.3056C178.21 12.3056 178.243 12.292 178.267 12.2678C178.291 12.2436 178.305 12.2108 178.305 12.1766C178.305 12.1424 178.291 12.1096 178.267 12.0854C178.243 12.0612 178.21 12.0477 178.176 12.0477C170.091 12.0028 161.984 12.0477 153.9 12.1934C153.87 12.1934 153.841 12.2052 153.82 12.2263C153.799 12.2473 153.788 12.2758 153.788 12.3056C153.788 12.3353 153.799 12.3638 153.82 12.3848C153.841 12.4059 153.87 12.4177 153.9 12.4177Z" fill="#E0E0E0"/>
<path d="M168.4 21.4744L146.294 21.594L146.351 32.1117L168.457 31.9921L168.4 21.4744Z" fill="#EBEBEB"/>
<path d="M190.399 21.3499L168.293 21.4695L168.35 31.9872L190.456 31.8676L190.399 21.3499Z" fill="#F5F5F5"/>
<path d="M146.303 24.5223C160.986 24.6905 175.726 24.5223 190.41 24.3037C190.444 24.3037 190.477 24.2901 190.501 24.2659C190.525 24.2417 190.539 24.2089 190.539 24.1747C190.539 24.1405 190.525 24.1077 190.501 24.0835C190.477 24.0594 190.444 24.0458 190.41 24.0458C175.726 23.9673 160.986 23.9785 146.303 24.2981C146.273 24.2981 146.245 24.3099 146.224 24.3309C146.202 24.3519 146.191 24.3805 146.191 24.4102C146.191 24.4399 146.202 24.4685 146.224 24.4895C146.245 24.5105 146.273 24.5223 146.303 24.5223Z" fill="#E0E0E0"/>
<path d="M223.684 32.1191H138.039V35.8867H223.684V32.1191Z" fill="#E0E0E0"/>
<path d="M155.537 33.9302H152.061V46.786H155.537V33.9302Z" fill="#E0E0E0"/>
<path d="M207.437 33.9302H203.96V46.786H207.437V33.9302Z" fill="#E0E0E0"/>
<path d="M203.862 -2.94687e-05L199.164 0.0253906L199.338 32.1785L204.036 32.1531L203.862 -2.94687e-05Z" fill="#EBEBEB"/>
<path d="M211.205 5.98736L203.906 6.02686L204.047 32.0857L211.346 32.0462L211.205 5.98736Z" fill="#F5F5F5"/>
<path d="M207.509 11.1451C209.525 11.1451 211.159 11.0874 211.159 11.0162C211.159 10.9449 209.525 10.8872 207.509 10.8872C205.494 10.8872 203.86 10.9449 203.86 11.0162C203.86 11.0874 205.494 11.1451 207.509 11.1451Z" fill="#E0E0E0"/>
<path d="M207.509 10.0516C209.525 10.0516 211.159 9.99387 211.159 9.92265C211.159 9.85143 209.525 9.7937 207.509 9.7937C205.494 9.7937 203.86 9.85143 203.86 9.92265C203.86 9.99387 205.494 10.0516 207.509 10.0516Z" fill="#E0E0E0"/>
<path d="M207.509 28.2621C209.525 28.2621 211.159 28.2043 211.159 28.1331C211.159 28.0619 209.525 28.0042 207.509 28.0042C205.494 28.0042 203.86 28.0619 203.86 28.1331C203.86 28.2043 205.494 28.2621 207.509 28.2621Z" fill="#E0E0E0"/>
<path d="M207.509 27.1685C209.525 27.1685 211.159 27.1108 211.159 27.0396C211.159 26.9684 209.525 26.9106 207.509 26.9106C205.494 26.9106 203.86 26.9684 203.86 27.0396C203.86 27.1108 205.494 27.1685 207.509 27.1685Z" fill="#E0E0E0"/>
<path d="M207.627 24.6513C207.699 24.6513 207.756 22.0231 207.756 18.7812C207.756 15.5392 207.699 12.9111 207.627 12.9111C207.556 12.9111 207.499 15.5392 207.499 18.7812C207.499 22.0231 207.556 24.6513 207.627 24.6513Z" fill="#E0E0E0"/>
<path d="M219.183 12.3953H211.238V32.0631H219.183V12.3953Z" fill="#EBEBEB"/>
<path d="M201.449 6.85031C202.195 6.85031 202.8 6.24536 202.8 5.49913C202.8 4.75289 202.195 4.14795 201.449 4.14795C200.703 4.14795 200.098 4.75289 200.098 5.49913C200.098 6.24536 200.703 6.85031 201.449 6.85031Z" fill="#E0E0E0"/>
<path d="M201.864 9.21631H201.028V28.3459H201.864V9.21631Z" fill="#E0E0E0"/>
<path d="M247.63 234.409C247.63 234.488 193.745 234.555 127.285 234.555C60.8252 234.555 6.92944 234.488 6.92944 234.409C6.92944 234.331 60.8028 234.264 127.285 234.264C193.768 234.264 247.63 234.331 247.63 234.409Z" fill="#101B2B"/>
<path d="M70.771 28.6489C73.4175 31.8831 74.8494 35.9411 74.8189 40.1199C74.8189 42.4859 74.3592 45.0929 75.7328 47.016C76.7756 48.4737 78.6819 49.2082 79.5284 50.7892C80.5488 52.6898 79.6798 55.095 80.3078 57.1582C81.1992 60.0849 84.6248 61.3127 86.66 63.5946C87.5275 64.6025 88.1345 65.8079 88.4277 67.105C88.7209 68.4021 88.6915 69.7514 88.3419 71.0345C87.9679 72.3114 87.2961 73.4814 86.3819 74.4483C85.4677 75.4152 84.3371 76.1513 83.083 76.5962C81.7421 77.1254 80.246 77.1012 78.9229 76.5289C77.5493 75.8449 76.6803 74.4376 76.0075 73.064C74.6507 70.3617 62.7817 55.7566 62.1089 52.8132" fill="#101B2B"/>
<path d="M62.1372 25.2065C57.2819 24.4272 52.606 27.6453 50.5708 32.1193C48.5357 36.5934 48.4684 41.6505 48.3282 46.5899C48.1881 51.5292 47.8348 56.6312 45.3231 60.8641C43.7308 63.5497 41.264 65.91 40.8771 68.9992C40.5295 71.7745 41.9592 74.5778 41.4602 77.3082C41.0453 79.7078 39.2176 81.7934 39.2905 84.221C39.3802 87.1477 42.3853 89.351 45.3119 89.4295C48.2385 89.508 50.9913 87.9774 53.29 86.1553C57.0246 83.1898 60.014 79.3921 62.0194 75.0655" fill="#101B2B"/>
<path d="M54.1531 36.778C53.9998 35.5567 54.0934 34.317 54.4284 33.1325C54.7634 31.9481 55.3329 30.843 56.1032 29.8829C56.8735 28.9228 57.8288 28.1272 58.9125 27.5434C59.9961 26.9596 61.1861 26.5995 62.4116 26.4844C67.3117 26.0191 71.6624 29.6633 72.3968 34.5298C73.0416 38.7964 73.591 43.1022 73.5742 44.6664C73.5126 49.3816 70.7709 51.2205 69.6496 51.7699C69.2485 51.9157 68.8332 52.019 68.4106 52.0783C68.4065 52.084 68.4043 52.0909 68.4043 52.0979C68.4043 52.105 68.4065 52.1118 68.4106 52.1176L69.459 57.5335C69.9356 61.0824 67.9565 64.2613 64.4131 64.7603C60.8698 65.2593 58.0833 62.5514 57.5395 59.0024L54.1531 36.778Z" fill="#FFBE9D"/>
<path d="M71.4327 36.599C71.3542 36.7111 70.7319 36.3747 69.9357 36.4924C69.1396 36.6102 68.6126 37.0979 68.5117 37.0082C68.4108 36.9185 68.5117 36.784 68.7584 36.5597C69.0647 36.2607 69.4567 36.0648 69.8797 35.9991C70.2945 35.9359 70.7187 36.0066 71.0907 36.2009C71.3654 36.3859 71.4719 36.5485 71.4327 36.599Z" fill="#101B2B"/>
<path d="M64.335 38.3255C64.2565 38.4377 63.6342 38.1013 62.8381 38.219C62.0419 38.3368 61.5149 38.8245 61.414 38.7348C61.3131 38.6451 61.414 38.5106 61.6607 38.2863C61.9671 37.9873 62.359 37.7913 62.782 37.7256C63.1975 37.6646 63.6216 37.7372 63.993 37.9331C64.2621 38.1349 64.3743 38.2751 64.335 38.3255Z" fill="#101B2B"/>
<path d="M67.2504 42.6204C67.6517 42.4282 68.0755 42.287 68.5119 42.1999C68.7137 42.1494 68.8987 42.0821 68.9155 41.9364C68.8974 41.7315 68.8194 41.5365 68.6913 41.3757L67.8615 39.9124C66.7009 37.8268 65.8319 36.0943 65.916 36.0495C66.0001 36.0046 67.0093 37.6586 68.1586 39.7442L68.966 41.2243C69.1306 41.4515 69.21 41.7294 69.1902 42.0092C69.1714 42.0856 69.1353 42.1566 69.0847 42.2168C69.0342 42.2771 68.9706 42.325 68.8987 42.3568C68.7913 42.4045 68.6782 42.4384 68.5623 42.4578C68.1336 42.567 67.6928 42.6217 67.2504 42.6204Z" fill="#101B2B"/>
<path d="M68.3714 52.0843C68.3714 52.0843 65.327 52.7851 61.1333 51.0303C61.1333 51.0303 62.9442 54.9549 68.6517 53.542L68.3714 52.0843Z" fill="#EB996E"/>
<path d="M63.9311 36.2344C63.8863 36.4643 63.0733 36.4755 62.1538 36.7278C61.2344 36.9801 60.5111 37.3445 60.3597 37.1651C60.2925 37.081 60.3934 36.8568 60.6681 36.6045C61.0375 36.2871 61.4744 36.058 61.9455 35.9347C62.4167 35.8113 62.9097 35.7969 63.3873 35.8924C63.7517 35.9822 63.9535 36.1279 63.9311 36.2344Z" fill="#101B2B"/>
<path d="M70.7769 34.8327C70.6648 35.0346 70.0873 34.928 69.4202 35.0121C68.753 35.0962 68.2148 35.3093 68.0578 35.1411C67.9905 35.057 68.0578 34.8608 68.2708 34.6533C68.5694 34.3995 68.9365 34.2401 69.3258 34.1952C69.715 34.1503 70.1089 34.2219 70.4574 34.401C70.7265 34.558 70.8274 34.7318 70.7769 34.8327Z" fill="#101B2B"/>
<path d="M62.6023 39.3574C62.6146 39.4441 62.644 39.5276 62.6889 39.6029C62.7337 39.6782 62.7931 39.7438 62.8635 39.796C62.9339 39.8481 63.014 39.8858 63.0991 39.9067C63.1842 39.9277 63.2726 39.9315 63.3592 39.918C63.4437 39.9091 63.5255 39.8832 63.5998 39.842C63.6741 39.8008 63.7393 39.745 63.7916 39.678C63.8439 39.6111 63.8822 39.5343 63.9043 39.4522C63.9263 39.3702 63.9316 39.2845 63.9198 39.2004C63.9075 39.1136 63.8781 39.0302 63.8332 38.9549C63.7884 38.8796 63.729 38.814 63.6586 38.7618C63.5882 38.7096 63.5081 38.672 63.423 38.651C63.3379 38.6301 63.2495 38.6262 63.1629 38.6397C63.0784 38.6487 62.9966 38.6745 62.9223 38.7158C62.848 38.757 62.7828 38.8127 62.7305 38.8797C62.6782 38.9467 62.6399 39.0234 62.6178 39.1055C62.5958 39.1876 62.5905 39.2732 62.6023 39.3574Z" fill="#101B2B"/>
<path d="M69.6721 37.8266C69.6844 37.9134 69.7139 37.9968 69.7587 38.0721C69.8035 38.1474 69.8629 38.213 69.9333 38.2652C70.0037 38.3174 70.0838 38.355 70.1689 38.376C70.254 38.3969 70.3424 38.4008 70.429 38.3873C70.5135 38.3783 70.5953 38.3524 70.6696 38.3112C70.7439 38.27 70.8091 38.2142 70.8614 38.1473C70.9137 38.0803 70.9521 38.0035 70.9741 37.9215C70.9961 37.8394 71.0014 37.7538 70.9896 37.6696C70.9773 37.5829 70.9479 37.4994 70.903 37.4241C70.8582 37.3488 70.7989 37.2832 70.7284 37.231C70.658 37.1789 70.5779 37.1412 70.4928 37.1203C70.4078 37.0993 70.3193 37.0955 70.2328 37.109C70.1483 37.1179 70.0664 37.1438 69.9922 37.185C69.9179 37.2262 69.8526 37.282 69.8003 37.3489C69.748 37.4159 69.7097 37.4927 69.6877 37.5747C69.6656 37.6568 69.6604 37.7425 69.6721 37.8266Z" fill="#101B2B"/>
<path d="M68.5005 44.1566C68.2803 44.0903 68.044 44.1021 67.8315 44.19C67.6191 44.2778 67.4434 44.4364 67.3343 44.6388C67.2309 44.8258 67.1887 45.0406 67.2139 45.2528C67.239 45.4651 67.3302 45.6641 67.4745 45.8218C67.6267 45.9729 67.8281 46.0645 68.042 46.0799C68.256 46.0953 68.4683 46.0336 68.6407 45.9059C68.8569 45.7089 68.9877 45.4353 69.0051 45.1434C69.0443 44.8756 68.9802 44.603 68.8257 44.3809C68.7465 44.2725 68.6343 44.1927 68.506 44.1533C68.3777 44.1139 68.24 44.117 68.1137 44.1622" fill="#EB996E"/>
<path d="M71.7749 30.7176C71.335 28.9396 70.237 27.3948 68.7025 26.3949C67.4458 25.4896 65.9547 24.9659 64.4079 24.8868C62.8509 24.8185 61.3305 25.371 60.1805 26.423C59.3753 27.231 58.9168 28.3211 58.9022 29.4617L58.9919 28.6768C58.7572 29.3137 58.7572 30.0134 58.9919 30.6503C59.1209 30.9923 59.2779 31.3399 59.418 31.6819C59.8181 32.671 60.563 33.4817 61.5149 33.9638C61.9452 34.1957 62.4278 34.3134 62.9165 34.3058C63.1607 34.3015 63.4011 34.2442 63.6208 34.1377C63.8406 34.0312 64.0346 33.8781 64.1892 33.689C64.5373 33.0813 64.6453 32.3653 64.492 31.6819C64.8582 32.3676 65.383 32.9558 66.0226 33.3975C66.3482 33.6056 66.7355 33.6952 67.1194 33.6513C67.5033 33.6074 67.8604 33.4326 68.1306 33.1564C68.5848 32.5621 68.4053 31.7099 68.1306 31.0091C68.5625 31.6657 69.168 32.1897 69.8799 32.5229C70.068 32.6297 70.2763 32.6963 70.4915 32.7185C70.7067 32.7407 70.9241 32.718 71.1301 32.6518C71.2956 32.5707 71.4403 32.4527 71.553 32.3069C71.6658 32.1611 71.7436 31.9914 71.7805 31.8108C71.8589 31.4504 71.857 31.0772 71.7749 30.7176Z" fill="#101B2B"/>
<path d="M67.7269 32.1808C67.6765 32.1808 67.6821 31.5136 67.469 30.4989C67.2138 29.1515 66.5364 27.9203 65.5348 26.9835C64.9816 26.4835 64.3162 26.1239 63.5949 25.9351C63.0034 25.7898 62.3875 25.7745 61.7896 25.8903C61.2393 26.0217 60.7133 26.2393 60.231 26.535C60.231 26.535 60.3263 26.3949 60.573 26.2154C60.9275 25.9687 61.3249 25.79 61.7447 25.6884C62.3735 25.541 63.0278 25.541 63.6566 25.6884C64.4263 25.8723 65.1376 26.2463 65.7254 26.7761C66.7767 27.7494 67.4633 29.0532 67.6709 30.4708C67.7406 30.8914 67.7744 31.3172 67.7718 31.7435C67.7816 31.8908 67.7665 32.0386 67.7269 32.1808Z" fill="#455A64"/>
<path d="M119.363 97.5647L97.8057 89.0035C97.8057 89.0035 86.7608 74.5218 86.9907 74.2415L79.2368 82.7298L90.506 97.9796L116.588 104.096L128.95 104.197C128.019 99.4373 119.363 97.5647 119.363 97.5647Z" fill="#FFBE9D"/>
<path d="M72.3745 56.2385L69.4367 55.1172L56.7547 56.7263V58.9689L56.3902 59.0137C53.6544 59.5938 51.0303 60.6124 48.6195 62.0301C46.3633 63.4083 44.5706 65.4295 43.4717 67.8342C42.3727 70.2388 42.0178 72.9171 42.4523 75.525C42.9681 78.732 43.9661 82.6285 45.8948 84.8824C49.5783 89.1882 52.9422 83.8676 52.9422 83.8676C52.9422 83.8676 55.2521 89.1434 55.1231 91.6327C55.011 93.7239 54.0859 98.0746 53.7888 99.4314C53.7766 99.4856 53.7756 99.5417 53.7858 99.5964C53.796 99.651 53.8172 99.703 53.8481 99.7492C53.8791 99.7953 53.9191 99.8347 53.9658 99.8649C54.0125 99.8951 54.0648 99.9155 54.1196 99.9248L80.8572 104.853L80.9862 98.3157L80.134 71.4042L78.951 60.9592C78.951 60.9592 78.9902 55.9806 72.3745 56.2385Z" fill="#008F70"/>
<path d="M78.5476 59.2324L88.7459 73.972L80.5323 83.9741L78.5476 59.2324Z" fill="#008F70"/>
<path d="M80.7058 90.2479C80.6672 89.9318 80.654 89.613 80.6666 89.2948L80.6329 86.7046C80.5812 83.8588 80.3772 81.0178 80.0218 78.1938C79.6438 75.3662 79.1236 72.5593 78.4632 69.784L77.9025 67.2891C77.8142 66.9844 77.7505 66.6732 77.7119 66.3584C77.835 66.6508 77.9343 66.9527 78.0091 67.2611C78.1829 67.8217 78.4183 68.7019 78.6931 69.7616C79.4149 72.5283 79.9654 75.3369 80.3414 78.1714C80.7018 81.0051 80.8778 83.8593 80.8684 86.7158C80.8684 87.8371 80.8684 88.6949 80.8067 89.3116C80.798 89.6259 80.7642 89.939 80.7058 90.2479Z" fill="#101B2B"/>
<path d="M55.6336 67.8497C55.6336 67.8945 54.8599 67.8889 53.6152 67.9562C50.377 68.1229 47.1835 68.7846 44.1458 69.9185C42.9796 70.3502 42.2732 70.6642 42.2563 70.6249C42.3994 70.5099 42.558 70.4156 42.7273 70.3446C43.0357 70.182 43.4954 69.969 44.0729 69.7223C47.0979 68.4721 50.3313 67.8026 53.604 67.7488C54.2319 67.7488 54.7253 67.7488 55.0841 67.7824C55.2696 67.7788 55.4545 67.8014 55.6336 67.8497Z" fill="#FAFAFA"/>
<path d="M79.2595 74.5776C78.8488 74.7234 78.4211 74.8157 77.9868 74.8523C75.9138 75.1562 73.8133 75.2276 71.7243 75.0654C71.2881 75.0575 70.8547 74.9934 70.4348 74.8748C70.8655 74.8326 71.2993 74.8326 71.7299 74.8748C72.5261 74.8748 73.6306 74.8748 74.8472 74.8748C76.0638 74.8748 77.1627 74.7514 77.9588 74.6785C78.388 74.6023 78.8237 74.5685 79.2595 74.5776Z" fill="#FAFAFA"/>
<path d="M83.9409 67.917C82.6383 69.2906 80.9964 70.2963 79.1809 70.8324C79.1473 70.7539 80.3022 70.2717 81.6029 69.442C82.9036 68.6122 83.8848 67.8497 83.9409 67.917Z" fill="#FAFAFA"/>
<path d="M79.8202 61.0826C78.0509 62.6792 75.7954 63.6332 73.4175 63.7906C73.4175 63.7009 74.9593 63.4654 76.731 62.7085C78.5026 61.9516 79.7641 61.0097 79.8202 61.0826Z" fill="#FAFAFA"/>
<path d="M80.3752 85.9925C80.2104 86.1083 80.0314 86.2025 79.8426 86.2728C79.495 86.4354 78.9792 86.6485 78.3344 86.884C74.9487 88.1069 71.3572 88.6591 67.7605 88.5099C67.0709 88.4762 66.5158 88.4314 66.1346 88.3809C65.9346 88.3705 65.7368 88.3347 65.5459 88.2744C65.5459 88.2239 66.3981 88.2744 67.7885 88.308C71.3532 88.3424 74.8999 87.797 78.2896 86.6933C79.5847 86.2728 80.3584 85.9533 80.3752 85.9925Z" fill="#FAFAFA"/>
<path d="M80.5826 93.595C80.509 93.651 80.4278 93.6963 80.3415 93.7295L79.6294 94.0659C79.0127 94.3575 78.0989 94.7387 76.9551 95.1872C75.8114 95.6358 74.4266 96.0675 72.8679 96.4936C69.4801 97.4088 66.0017 97.9484 62.4958 98.1026C60.8811 98.1643 59.4234 98.1587 58.2068 98.1026C56.9902 98.0466 56.0034 97.9569 55.325 97.8672L54.5457 97.7606C54.4538 97.7548 54.3632 97.7359 54.2766 97.7046C54.3677 97.6918 54.4602 97.6918 54.5513 97.7046L55.3362 97.755C56.0146 97.8111 57.0182 97.8672 58.2124 97.9008C59.4066 97.9344 60.8755 97.9008 62.4846 97.8447C64.0937 97.7887 65.8485 97.5868 67.6819 97.2841C69.5152 96.9813 71.242 96.6169 72.8007 96.2244C74.3593 95.832 75.7385 95.3891 76.8878 94.9854C78.0372 94.5817 78.9567 94.2341 79.5846 93.9762L80.3134 93.6903C80.3981 93.6456 80.4887 93.6135 80.5826 93.595Z" fill="#FAFAFA"/>
<path d="M31.3684 212.785L28.3409 226.481L22.8408 236.607C22.7436 236.782 22.6839 236.975 22.6657 237.174C22.6474 237.373 22.671 237.574 22.7348 237.763C22.7987 237.953 22.9015 238.127 23.0366 238.274C23.1716 238.422 23.336 238.539 23.5192 238.62C23.7269 238.715 23.9544 238.759 24.1827 238.748C24.411 238.738 24.6333 238.672 24.8312 238.558C27.3877 237.072 36.8068 231.561 36.9749 230.552C37.1656 229.374 41.1294 216.317 41.1294 216.317L31.3684 212.785Z" fill="#008F70"/>
<g opacity="0.6">
<path d="M23.519 238.62L37.2159 229.649L37.0757 230.21C36.9546 230.708 36.6606 231.147 36.2459 231.449C35.1246 232.251 32.0074 234.409 24.8814 238.569C24.677 238.689 24.4461 238.756 24.2094 238.765C23.9726 238.774 23.7374 238.724 23.5246 238.62H23.519Z" fill="white"/>
</g>
<g opacity="0.6">
<path d="M35.4834 224.553C35.2855 224.635 35.1252 224.788 35.0331 224.981C34.941 225.175 34.9236 225.396 34.9844 225.601C35.0592 225.801 35.2079 225.965 35.3997 226.059C35.5916 226.153 35.8121 226.169 36.016 226.106C36.2278 226.018 36.3992 225.855 36.4967 225.647C36.5942 225.44 36.6107 225.203 36.543 224.984C36.4437 224.786 36.2722 224.633 36.0637 224.557C35.8552 224.481 35.6255 224.487 35.4217 224.575" fill="white"/>
</g>
<path d="M28.077 233.428C27.8529 232.923 27.5352 232.464 27.1407 232.077C26.6894 231.756 26.1815 231.524 25.6438 231.393C25.6438 231.359 25.84 231.292 26.1708 231.326C26.6009 231.384 27.0056 231.562 27.3381 231.841C27.6706 232.12 27.9171 232.488 28.049 232.901C28.1443 233.243 28.1163 233.428 28.077 233.428Z" fill="#101B2B"/>
<path d="M26.6589 235.015C26.5805 235.06 26.2497 234.51 25.5937 234.134C25.174 233.943 24.7434 233.776 24.3042 233.635C24.5461 233.555 24.8037 233.534 25.0554 233.574C25.3072 233.614 25.5456 233.714 25.7507 233.865C26.4964 234.297 26.7374 234.998 26.6589 235.015Z" fill="#101B2B"/>
<path d="M30.4602 231.561C29.9817 231.032 29.4645 230.539 28.9128 230.086C28.3022 229.718 27.6651 229.396 27.0066 229.122C27.7651 229.105 28.5047 229.36 29.0922 229.84C29.7381 230.233 30.223 230.843 30.4602 231.561Z" fill="#101B2B"/>
<path d="M31.727 227.446C31.6709 227.519 30.9926 227.02 30.045 226.745C29.0975 226.471 28.2397 226.515 28.2341 226.42C28.8483 226.199 29.5205 226.199 30.1348 226.42C30.7685 226.567 31.3314 226.93 31.727 227.446Z" fill="#101B2B"/>
<path d="M32.7197 223.449C32.1731 223.11 31.5827 222.847 30.9648 222.669C30.3287 222.582 29.6835 222.582 29.0474 222.669C29.0474 222.636 29.2212 222.501 29.608 222.394C30.0797 222.266 30.5748 222.25 31.0537 222.348C31.5327 222.445 31.9822 222.653 32.3664 222.955C32.6243 223.224 32.7477 223.42 32.7197 223.449Z" fill="#101B2B"/>
<path d="M31.1779 221.912C31.1743 221.733 31.2107 221.555 31.2844 221.391C31.4457 220.929 31.6972 220.504 32.0245 220.141C32.2417 219.854 32.5471 219.648 32.8935 219.552C33.0103 219.529 33.1314 219.544 33.2393 219.594C33.3471 219.645 33.4361 219.728 33.4934 219.832C33.5969 220.039 33.6209 220.276 33.5607 220.5C33.4179 220.95 33.1225 221.336 32.7254 221.592C32.3283 221.848 31.8544 221.957 31.3853 221.901C30.9224 221.837 30.4891 221.636 30.1407 221.324C29.7922 221.013 29.5444 220.605 29.4286 220.152C29.4003 220.038 29.3967 219.92 29.4179 219.805C29.4392 219.69 29.4849 219.581 29.552 219.485C29.6295 219.394 29.7337 219.331 29.8496 219.304C29.9655 219.276 30.0871 219.287 30.1967 219.333C30.514 219.488 30.7847 219.724 30.9817 220.017C31.2802 220.402 31.508 220.837 31.6544 221.301C31.7231 221.466 31.7556 221.644 31.7498 221.823C31.5223 221.219 31.2068 220.652 30.8135 220.141C30.6302 219.901 30.3917 219.708 30.1183 219.58C30.0588 219.553 29.9923 219.547 29.9286 219.561C29.865 219.575 29.8076 219.609 29.765 219.659C29.7259 219.725 29.7007 219.798 29.691 219.874C29.6814 219.95 29.6875 220.028 29.709 220.101C29.8206 220.489 30.0411 220.835 30.3443 221.101C30.6474 221.366 31.0205 221.539 31.419 221.598C31.8155 221.644 32.216 221.555 32.555 221.344C32.8941 221.133 33.1517 220.814 33.286 220.438C33.3417 220.286 33.3417 220.119 33.286 219.967C33.2542 219.909 33.2052 219.863 33.1458 219.835C33.0865 219.807 33.0198 219.798 32.9552 219.81C32.6623 219.892 32.4018 220.062 32.2095 220.298C31.773 220.771 31.4237 221.317 31.1779 221.912Z" fill="#101B2B"/>
<g opacity="0.3">
<path d="M31.0373 214.27L30.3813 217.41L40.2993 219.053L41.1291 216.317L31.3905 212.785L31.0373 214.27Z" fill="black"/>
</g>
<path d="M75.716 217.853L74.8975 228.797C74.8975 228.797 85.7461 233.283 85.7966 235.346L64.4917 234.522L65.0524 217.416L75.716 217.853Z" fill="#008F70"/>
<g opacity="0.6">
<path d="M68.3717 227.636C68.1643 227.691 67.9843 227.82 67.8663 227.999C67.7483 228.178 67.7007 228.394 67.7326 228.606C67.7785 228.815 67.903 228.999 68.0804 229.119C68.2578 229.239 68.4745 229.286 68.6857 229.251C68.9056 229.193 69.0961 229.055 69.2203 228.864C69.3446 228.674 69.3938 228.444 69.3585 228.219C69.2876 228.007 69.1372 227.829 68.9386 227.725C68.7401 227.62 68.5088 227.597 68.2932 227.659" fill="white"/>
</g>
<g opacity="0.6">
<path d="M64.5088 234.521L64.6321 232.8L84.9895 234.235C84.9895 234.235 85.9202 234.684 85.7857 235.357L64.5088 234.521Z" fill="white"/>
</g>
<path d="M75.2452 228.702C75.2452 228.808 74.7182 228.831 74.1912 229.145C73.6642 229.459 73.3783 229.885 73.2829 229.84C73.1876 229.795 73.367 229.201 74.0062 228.831C74.6453 228.461 75.2677 228.607 75.2452 228.702Z" fill="#101B2B"/>
<path d="M77.4428 229.711C77.4428 229.812 77.0055 229.975 76.6354 230.395C76.2654 230.816 76.1476 231.281 76.0411 231.275C75.9346 231.27 75.8954 230.675 76.3663 230.154C76.8373 229.633 77.4428 229.616 77.4428 229.711Z" fill="#101B2B"/>
<path d="M78.6035 232.436C78.5082 232.436 78.3848 231.931 78.6708 231.37C78.9567 230.81 79.4557 230.602 79.4949 230.692C79.5342 230.782 79.2202 231.073 78.9903 231.533C78.7605 231.993 78.71 232.424 78.6035 232.436Z" fill="#101B2B"/>
<path d="M75.1555 226.19C75.1106 226.285 74.6397 226.123 74.0342 226.139C73.4287 226.156 72.9802 226.324 72.9129 226.235C72.8456 226.145 73.3165 225.792 74.0342 225.781C74.7518 225.769 75.206 226.106 75.1555 226.19Z" fill="#101B2B"/>
<g opacity="0.3">
<path d="M75.5478 220.017L75.4076 221.968L64.9514 221.469L65.0187 219.216L75.5478 220.017Z" fill="black"/>
</g>
<path d="M75.2788 223.975C74.9262 224.057 74.558 224.042 74.2136 223.931C73.8252 223.849 73.4485 223.719 73.0923 223.544C72.8846 223.442 72.6841 223.326 72.4924 223.196C72.3745 223.125 72.2686 223.036 72.1784 222.933C72.1156 222.853 72.0815 222.754 72.0815 222.652C72.0815 222.551 72.1156 222.452 72.1784 222.372C72.2329 222.301 72.3036 222.244 72.3845 222.206C72.4655 222.168 72.5543 222.15 72.6437 222.153C72.7793 222.158 72.9134 222.183 73.0418 222.226C73.2677 222.29 73.4873 222.374 73.6978 222.478C74.0513 222.655 74.3748 222.885 74.6565 223.162C75.133 223.639 75.2844 224.031 75.2508 224.054C75.2171 224.076 74.9761 223.751 74.4883 223.353C74.2033 223.127 73.8905 222.939 73.5576 222.792C73.3619 222.705 73.1594 222.634 72.9521 222.579C72.7278 222.512 72.5372 222.501 72.4755 222.579C72.4139 222.658 72.4755 222.63 72.4755 222.697C72.5428 222.771 72.6202 222.835 72.7054 222.888C72.8854 223.013 73.0727 223.127 73.2661 223.23C73.5899 223.407 73.9297 223.553 74.2808 223.667C74.6204 223.746 74.9539 223.849 75.2788 223.975Z" fill="#101B2B"/>
<path d="M75.1386 224.121C74.9468 223.809 74.8622 223.443 74.8975 223.078C74.8917 222.445 75.0605 221.822 75.3853 221.279C75.4481 221.14 75.5457 221.021 75.6685 220.931C75.7913 220.842 75.9352 220.786 76.0861 220.769C76.1804 220.775 76.271 220.807 76.3475 220.863C76.4239 220.919 76.4829 220.995 76.5178 221.083C76.5678 221.208 76.5999 221.34 76.6131 221.475C76.6495 221.713 76.6495 221.955 76.6131 222.193C76.5381 222.589 76.3668 222.96 76.1141 223.275C75.6768 223.835 75.2395 223.919 75.2283 223.88C75.2171 223.841 75.5647 223.639 75.9067 223.123C76.102 222.826 76.2301 222.489 76.2823 222.137C76.3113 221.932 76.3113 221.724 76.2823 221.52C76.2823 221.29 76.1814 221.105 76.0917 221.127C76.002 221.15 75.8002 221.284 75.7048 221.464C75.5931 221.642 75.4974 221.829 75.4189 222.024C75.2873 222.362 75.2042 222.717 75.1722 223.078C75.0993 223.712 75.1946 224.104 75.1386 224.121Z" fill="#101B2B"/>
<path d="M53.6821 99.807C53.6821 99.807 50.3181 99.9528 48.0755 111.463C45.8329 122.973 28.7329 216.205 28.7329 216.205L41.129 216.317L64.5083 127.688L62.9553 219.075L75.5476 220.04C75.5476 220.04 84.9947 118.959 85.0788 113.078C85.1909 105.744 80.9804 98.3269 80.9804 98.3269L53.6821 99.807Z" fill="#101B2B"/>
<path d="M67.8454 113.519C69.5108 105.427 70.797 98.8543 70.7181 98.8381C70.6393 98.8219 69.2253 105.368 67.5599 113.46C65.8945 121.552 64.6084 128.124 64.6872 128.14C64.7661 128.157 66.1801 121.61 67.8454 113.519Z" fill="#455A64"/>
<path d="M72.6495 100.48C72.6495 100.452 72.9859 100.346 73.3672 100.688C73.4765 100.788 73.563 100.91 73.6211 101.046C73.6791 101.183 73.7072 101.33 73.7036 101.478C73.6826 101.663 73.613 101.839 73.5017 101.987C73.3905 102.136 73.2417 102.253 73.0705 102.325C72.8994 102.398 72.7121 102.424 72.5278 102.4C72.3435 102.376 72.1688 102.304 72.0216 102.19C71.9126 102.089 71.8266 101.965 71.7696 101.828C71.7125 101.691 71.6856 101.543 71.6908 101.394C71.6908 100.878 72.0384 100.699 72.044 100.732C71.9478 100.938 71.898 101.162 71.8983 101.388C71.9153 101.618 72.022 101.831 72.1954 101.983C72.304 102.053 72.4278 102.095 72.5563 102.107C72.6849 102.12 72.8144 102.101 72.9342 102.052C73.0539 102.004 73.1603 101.928 73.2444 101.83C73.3285 101.732 73.3879 101.615 73.4176 101.489C73.4303 101.259 73.3517 101.034 73.199 100.861C72.9467 100.519 72.6439 100.531 72.6495 100.48Z" fill="#455A64"/>
<path d="M72.1109 105.038C72.1109 105.004 72.4585 105.038 72.6715 105.503C72.7265 105.635 72.7519 105.777 72.7461 105.919C72.7403 106.061 72.7034 106.201 72.6379 106.327C72.5419 106.479 72.4066 106.601 72.2463 106.681C72.0861 106.761 71.9071 106.797 71.7284 106.783C71.5498 106.769 71.3782 106.707 71.2323 106.603C71.0863 106.499 70.9714 106.357 70.8999 106.193C70.8554 106.058 70.841 105.914 70.8574 105.773C70.8739 105.632 70.9209 105.496 70.9952 105.374C71.2587 104.954 71.6175 104.965 71.6063 104.999C71.5951 105.032 71.3428 105.111 71.1802 105.47C71.1386 105.569 71.1171 105.676 71.1171 105.783C71.1171 105.891 71.1386 105.998 71.1802 106.097C71.2393 106.208 71.3254 106.303 71.4306 106.371C71.5358 106.44 71.6566 106.481 71.7819 106.49C71.9072 106.5 72.0329 106.478 72.1472 106.426C72.2616 106.374 72.3609 106.293 72.4361 106.193C72.4888 106.099 72.5224 105.996 72.5349 105.889C72.5474 105.782 72.5386 105.674 72.5089 105.57C72.352 105.189 72.0885 105.077 72.1109 105.038Z" fill="#455A64"/>
<path d="M60.2311 100.597C60.2089 100.79 60.1599 100.979 60.0853 101.158C59.9096 101.671 59.6901 102.168 59.4293 102.644C58.5734 104.23 57.3379 105.579 55.8332 106.571C54.3285 107.563 52.6015 108.167 50.8064 108.329C50.2673 108.375 49.7253 108.375 49.1861 108.329C48.996 108.325 48.8074 108.295 48.6255 108.239C48.6255 108.183 49.4721 108.278 50.812 108.11C52.5607 107.894 54.2355 107.276 55.7045 106.303C57.1736 105.33 58.3968 104.029 59.2779 102.504C59.9619 101.394 60.1806 100.581 60.2311 100.597Z" fill="#455A64"/>
<path d="M84.3501 108.777C84.3501 108.777 84.2043 108.716 83.98 108.553C83.6588 108.324 83.3586 108.067 83.083 107.785C82.1609 106.852 81.4415 105.738 80.9697 104.514C80.498 103.29 80.2841 101.981 80.3414 100.67C80.357 100.276 80.4076 99.8839 80.4927 99.4986C80.5094 99.3542 80.5512 99.2138 80.6161 99.0837C80.6665 99.0837 80.5488 99.6949 80.5488 100.676C80.547 103.254 81.502 105.742 83.2287 107.656C83.8903 108.363 84.3837 108.733 84.3501 108.777Z" fill="#455A64"/>
<path d="M48.7487 77.65L54.2544 77.9528C54.6431 79.4992 55.1646 81.0093 55.813 82.466C60.2478 74.7738 63.6622 64.4634 64.5368 60.3202C64.4134 59.9053 64.2677 59.4511 64.0826 58.9353C63.8976 58.4195 64.0546 57.2534 64.1499 56.603C64.3013 55.6779 64.5592 54.4389 64.6321 53.867C64.8676 52.1178 65.1479 51.843 65.7534 52.0393C66.5832 52.3084 65.4114 56.9562 66.0954 57.0571C66.4598 57.1132 66.9083 55.5209 67.0373 54.2146C67.1662 52.9083 67.7605 48.8884 68.1922 48.6081C68.8258 48.2156 69.3752 48.8379 69.2182 50.1387C69.0613 51.4394 68.8538 55.3808 69.5434 55.4368C70.233 55.4929 70.7937 48.8267 70.7937 48.8267C70.7937 48.8267 70.6872 47.3746 71.4833 47.4139C72.9242 47.4755 71.7973 54.5005 71.6739 55.1677C71.5898 55.6331 72.3355 55.7284 72.4028 55.2126C72.47 54.6968 72.8177 48.552 74.2866 48.6025C75.4079 48.6417 73.4119 54.3884 74.0455 55.7228C74.679 57.0571 75.1163 51.1983 76.1928 51.2768C76.5909 51.3048 76.888 51.3833 76.1536 54.7024C75.4383 57.3377 74.5792 59.9318 73.5801 62.4731C71.8982 71.6678 64.3966 101.08 52.6621 95.6975C46.0968 92.6868 43.0356 77.7565 43.0356 77.7565L48.7487 77.65Z" fill="#FFBE9D"/>
<path d="M73.5914 62.4901C73.6024 62.4209 73.6212 62.3532 73.6475 62.2882L73.8437 61.7276L74.6118 59.485C74.937 58.5206 75.3407 57.3376 75.7331 55.9472C75.935 55.252 76.1032 54.5007 76.2602 53.7046C76.333 53.3009 76.4115 52.886 76.4564 52.4599C76.4819 52.2479 76.4912 52.0342 76.4844 51.8208C76.4844 51.6021 76.434 51.4227 76.2602 51.4227C76.0864 51.4227 75.963 51.5236 75.8397 51.7087C75.7261 51.9064 75.6322 52.1149 75.5593 52.331C75.4024 52.7739 75.279 53.2449 75.1557 53.7214C75.0323 54.198 74.9202 54.697 74.7744 55.2015C74.7107 55.4779 74.5967 55.7402 74.438 55.9752C74.3983 56.0215 74.3456 56.0548 74.2867 56.0706C74.25 56.0791 74.212 56.0795 74.1752 56.0717C74.1384 56.064 74.1037 56.0483 74.0736 56.0257C74.0078 55.9657 73.9545 55.8933 73.9166 55.8127C73.8563 55.6773 73.8167 55.5337 73.7989 55.3866C73.7707 54.2559 73.8818 53.1261 74.1297 52.0226C74.225 51.462 74.3259 50.9013 74.4044 50.3407C74.4427 50.0543 74.4652 49.7661 74.4717 49.4773C74.4717 49.2137 74.438 48.8549 74.3203 48.8045C74.2026 48.754 73.9166 48.911 73.7596 49.1521C73.6165 49.3902 73.5017 49.6442 73.4176 49.909C73.2288 50.4953 73.0845 51.095 72.9859 51.7031C72.8794 52.3198 72.7953 52.9477 72.728 53.5869L72.6327 54.5512L72.5879 55.039C72.5927 55.143 72.5752 55.2469 72.5365 55.3436C72.4978 55.4403 72.4389 55.5276 72.3636 55.5996C72.2676 55.6698 72.1517 55.7076 72.0328 55.7076C71.9139 55.7076 71.7981 55.6698 71.702 55.5996C71.6479 55.5634 71.602 55.5163 71.5672 55.4612C71.5324 55.4062 71.5096 55.3445 71.5002 55.28C71.4906 55.2206 71.4906 55.16 71.5002 55.1006V54.9829L71.6516 54.0017C71.7413 53.3458 71.8254 52.6786 71.887 52.0058C71.9487 51.333 71.9992 50.6546 72.0048 49.9762C72.0395 49.3049 71.9733 48.6321 71.8086 47.9803C71.7684 47.8157 71.6685 47.6718 71.5282 47.5766C71.4597 47.5553 71.3863 47.5558 71.318 47.5778C71.2498 47.5999 71.19 47.6426 71.147 47.7C70.9678 48.0327 70.8936 48.4119 70.9339 48.7876C70.8162 50.1052 70.6704 51.4003 70.4798 52.673C70.3845 53.3065 70.278 53.9401 70.1154 54.5624C70.0743 54.7194 70.0275 54.8745 69.9752 55.0277C69.9199 55.2171 69.8085 55.3852 69.6556 55.5099C69.5871 55.5425 69.5097 55.5513 69.4357 55.5351C69.3616 55.5188 69.295 55.4784 69.2464 55.4202C69.1808 55.3462 69.1294 55.2606 69.095 55.1679C69.0379 55.0117 68.9966 54.8502 68.9716 54.6857C68.8361 53.4659 68.8248 52.2355 68.938 51.0134C69.0172 50.4433 69.0472 49.8675 69.0277 49.2922C69.0107 49.0463 68.898 48.8168 68.7137 48.6531C68.6718 48.6262 68.6247 48.6083 68.5755 48.6006C68.5263 48.5928 68.476 48.5954 68.4278 48.6082C68.3729 48.6241 68.3202 48.6467 68.2708 48.6755C68.2351 48.698 68.2076 48.7314 68.1923 48.7708C68.0053 49.3027 67.8774 49.8536 67.8111 50.4135C67.699 50.9742 67.6092 51.4844 67.5195 52.0114C67.4298 52.5384 67.357 53.0598 67.2897 53.57C67.2224 54.0802 67.1831 54.596 67.0878 55.095C67.0018 55.5901 66.8704 56.0761 66.6954 56.5471C66.649 56.6646 66.5946 56.7789 66.5328 56.8891C66.4543 56.9956 66.4094 57.1302 66.1964 57.1975C66.1424 57.2081 66.0866 57.2025 66.0357 57.1816C65.9849 57.1607 65.9413 57.1252 65.9105 57.0797C65.8698 57.0158 65.8395 56.9457 65.8208 56.8723C65.7943 56.7487 65.7793 56.623 65.7759 56.4967C65.7759 55.5435 65.9049 54.6633 65.9553 53.8167C65.9929 53.4121 65.9929 53.0048 65.9553 52.6001C65.9553 52.4207 65.8712 52.2076 65.7703 52.1684C65.6995 52.1341 65.6219 52.1164 65.5432 52.1164C65.4646 52.1164 65.387 52.1341 65.3162 52.1684C65.0832 52.4227 64.9378 52.7449 64.9013 53.0879C64.8228 53.4355 64.7835 53.7775 64.7219 54.1083C64.4864 55.437 64.2397 56.5752 64.122 57.5058C64.0657 57.9151 64.0657 58.3301 64.122 58.7393C64.2005 59.0813 64.3126 59.3784 64.3799 59.6139L64.5425 60.1746C64.5646 60.2343 64.5796 60.2964 64.5873 60.3596C64.5542 60.3031 64.5278 60.2429 64.5088 60.1802L64.3182 59.6475C64.2397 59.4065 64.122 59.1373 64.0267 58.7673C63.9667 58.3471 63.9667 57.9205 64.0267 57.5002C64.1276 56.5527 64.3574 55.4202 64.5873 54.0914C64.649 53.7607 64.677 53.4074 64.7555 53.0542C64.7907 52.8641 64.8394 52.6767 64.9013 52.4936C64.96 52.2879 65.084 52.1069 65.2545 51.9778C65.357 51.9256 65.4703 51.8984 65.5853 51.8984C65.7003 51.8984 65.8136 51.9256 65.9161 51.9778C66.1796 52.1292 66.1908 52.3814 66.2356 52.5777C66.2755 52.9991 66.2755 53.4233 66.2356 53.8448C66.1964 54.697 66.0618 55.5884 66.0787 56.4967C66.0824 56.6041 66.0955 56.7111 66.1179 56.8162C66.1179 56.9228 66.1964 56.9676 66.1852 56.9452C66.174 56.9228 66.2917 56.8499 66.3366 56.7658C66.3901 56.6662 66.4369 56.5632 66.4767 56.4574C66.6424 56.0024 66.7662 55.5333 66.8468 55.0558C66.9421 54.5736 66.9701 54.0634 67.0374 53.5476C67.1047 53.0318 67.1775 52.5104 67.256 51.9778C67.3345 51.4452 67.4298 50.9125 67.542 50.3687C67.634 49.7918 67.792 49.2275 68.0129 48.6867C68.0577 48.5977 68.1255 48.5222 68.2091 48.4681C68.283 48.4245 68.3621 48.3905 68.4446 48.3672C68.5386 48.3399 68.6374 48.3333 68.7342 48.3478C68.8309 48.3623 68.9234 48.3976 69.0053 48.4513C69.1254 48.5675 69.2207 48.707 69.2852 48.8612C69.3498 49.0154 69.3824 49.1811 69.3809 49.3483C69.4216 49.6516 69.4216 49.9589 69.3809 50.2622C69.3473 50.5481 69.3249 50.8228 69.3024 51.1368C69.1955 52.333 69.2086 53.537 69.3417 54.7306C69.3636 54.872 69.3992 55.011 69.4482 55.1455C69.4678 55.1985 69.4962 55.2478 69.5323 55.2912C69.5323 55.4202 69.5323 55.2912 69.5323 55.3473C69.5323 55.4034 69.5323 55.3473 69.5323 55.2969C69.6031 55.2037 69.658 55.0995 69.6949 54.9885C69.7453 54.8483 69.7902 54.7026 69.8238 54.5512C69.9752 53.9513 70.0817 53.329 70.177 52.6954C70.3621 51.4339 70.5078 50.1388 70.6256 48.8325C70.5745 48.3703 70.6748 47.904 70.9115 47.5037C71.0013 47.3874 71.1256 47.3025 71.2666 47.2612C71.4076 47.2199 71.5581 47.2243 71.6964 47.2739C71.8142 47.3375 71.9178 47.4245 72.0007 47.5296C72.0836 47.6347 72.1442 47.7556 72.1786 47.885C72.3588 48.5743 72.4326 49.2871 72.3972 49.9987C72.3972 50.6939 72.3412 51.3779 72.2739 52.0563C72.2066 52.7347 72.1281 53.4018 72.0328 54.069L71.8814 55.0614C71.8422 55.2688 71.8478 55.2744 71.9095 55.3361C71.9484 55.3624 71.9943 55.3764 72.0412 55.3764C72.0882 55.3764 72.1341 55.3624 72.173 55.3361C72.2459 55.2856 72.2515 55.1903 72.2683 55.0109L72.3131 54.5232L72.4085 53.5532C72.4813 52.9085 72.5654 52.2749 72.6776 51.647C72.7802 51.0217 72.9302 50.4051 73.1261 49.8024C73.2258 49.4968 73.3633 49.2049 73.5354 48.9334C73.628 48.7865 73.7502 48.6605 73.8942 48.5634C73.9743 48.506 74.0669 48.4684 74.1644 48.4538C74.2619 48.4392 74.3614 48.4479 74.4549 48.4793C74.541 48.5319 74.6138 48.6039 74.6673 48.6896C74.7208 48.7752 74.7536 48.8721 74.7632 48.9727C74.7868 49.1304 74.7962 49.2898 74.7912 49.4492C74.7819 49.7513 74.7557 50.0527 74.7127 50.3519C74.6343 50.9125 74.5277 51.5124 74.4324 52.0731C74.188 53.1394 74.0713 54.231 74.0848 55.3249C74.098 55.4426 74.1282 55.5578 74.1745 55.6669C74.194 55.7072 74.2184 55.7449 74.2474 55.779C74.2474 55.779 74.2474 55.779 74.2474 55.7398C74.3749 55.55 74.4732 55.3421 74.5389 55.1231C74.6847 54.6353 74.8025 54.1363 74.9258 53.6541C75.0491 53.172 75.1781 52.6954 75.3463 52.2413C75.4296 52.0148 75.5347 51.797 75.6603 51.5909C75.728 51.4774 75.8154 51.3769 75.9182 51.2938C75.9773 51.2458 76.0462 51.2114 76.12 51.1929C76.1905 51.1807 76.2625 51.1807 76.333 51.1929C76.4095 51.2005 76.4826 51.2284 76.5447 51.2738C76.6068 51.3191 76.6557 51.3802 76.6863 51.4508C76.7324 51.5688 76.7571 51.6941 76.7591 51.8208C76.7634 52.0476 76.7503 52.2744 76.7199 52.4992C76.6694 52.9365 76.5853 53.3514 76.5068 53.7551C76.3443 54.5624 76.1648 55.3249 75.9462 55.9977C75.5257 57.3881 75.1052 58.5655 74.7576 59.5242C74.41 60.4829 74.1241 61.2062 73.9278 61.722L73.698 62.2826C73.6713 62.356 73.6355 62.4257 73.5914 62.4901Z" fill="#EB996E"/>
<path d="M42.9907 78.2891C44.056 82.0455 46.136 87.8539 48.373 93.9874C48.4441 94.1848 48.5722 94.3566 48.741 94.481C48.9099 94.6055 49.1118 94.6771 49.3214 94.6867C49.5309 94.6963 49.7386 94.6435 49.9181 94.535C50.0976 94.4265 50.2408 94.2671 50.3297 94.0771L55.8129 82.4828C55.8129 82.4828 54.4898 72.9517 54.6019 73.2937C54.714 73.6357 43.2823 74.5271 43.2823 74.5271L42.9907 78.2891Z" fill="#008F70"/>
<path d="M55.342 76.4224C55.342 76.4672 54.658 76.6691 53.576 77.0839C50.7423 78.1587 48.1295 79.7435 45.867 81.7598C44.998 82.5335 44.499 83.0549 44.4653 83.0213C44.5471 82.8702 44.6511 82.7323 44.7737 82.612C44.9811 82.3597 45.3343 82.0177 45.7324 81.6084C47.9469 79.4807 50.6042 77.8687 53.5143 76.8877C54.075 76.7027 54.5291 76.5737 54.8487 76.5065C55.0082 76.4545 55.1744 76.4262 55.342 76.4224Z" fill="#FAFAFA"/>
<path d="M57.5174 79.3094C57.163 78.95 56.8559 78.5468 56.6035 78.1096C55.2766 76.0669 54.3359 73.7979 53.8283 71.4154C53.698 70.9289 53.6302 70.4277 53.6265 69.9241C53.794 70.3964 53.9289 70.8797 54.0301 71.3706C54.6407 73.6958 55.565 75.9271 56.7773 78.0031C57.0537 78.4211 57.301 78.8575 57.5174 79.3094Z" fill="#101B2B"/>
<path d="M61.1783 27.9478C60.2271 29.5155 59.6374 31.2755 59.4522 33.0998C59.2669 34.9241 59.4908 36.7668 60.1074 38.4937C60.6681 40.0355 61.5651 41.5549 61.4025 43.192C61.2399 44.8291 59.9672 46.4494 60.4158 48.0697C60.6793 49.0284 61.5034 49.7517 61.8174 50.6823C62.1874 51.8036 61.8174 52.9866 61.6268 54.136C61.1783 57.0738 62.1146 60.0229 62.35 62.9887C62.5855 65.9546 61.7894 69.4194 59.1431 70.709C58.3414 71.1014 57.2929 71.2135 56.6257 70.6136C55.7792 69.8511 56.0146 68.4888 56.2445 67.3674C58.5656 56.1543 51.3948 45.2103 53.0319 33.8627C53.2955 32.0462 54.3102 28.9569 55.6222 27.6955C56.9341 26.434 60.5503 26.5742 61.7894 27.9197" fill="#101B2B"/>
<path d="M50.1333 60.4769C50.1333 60.4769 50.4697 60.0732 50.9743 59.2771C51.6843 58.1537 52.1804 56.9086 52.4376 55.6048C52.6093 54.7074 52.6677 53.7919 52.6114 52.88C52.5147 51.8214 52.4754 50.7583 52.4937 49.6955C52.5262 49.1123 52.6336 48.5357 52.8132 47.9799C53.0154 47.4069 53.2727 46.8549 53.5813 46.3315C54.2093 45.2719 55.0054 44.2851 55.7286 43.2255C56.4776 42.2296 56.9982 41.0812 57.2536 39.8616C57.3787 38.7111 57.3124 37.5479 57.0574 36.4191C56.8425 35.3721 56.7596 34.3023 56.8107 33.2346C56.8774 32.3021 57.0659 31.3823 57.3714 30.4986C57.8008 29.2198 58.4728 28.0358 59.3505 27.0113C59.5858 26.7321 59.8406 26.4698 60.113 26.2264C60.2034 26.136 60.303 26.0552 60.4101 25.9854C60.4101 25.9854 60.0345 26.3498 59.4402 27.1067C58.6088 28.1432 57.9741 29.3232 57.5676 30.5883C57.2891 31.4588 57.1233 32.3613 57.0742 33.2739C57.0347 34.3238 57.1251 35.3746 57.3433 36.4023C57.6115 37.5595 57.6835 38.7534 57.5564 39.9345C57.2956 41.1885 56.7615 42.3696 55.9921 43.3937C55.2577 44.4645 54.4616 45.4457 53.8504 46.4773C53.5498 46.9828 53.2982 47.516 53.0992 48.0696C52.9227 48.6031 52.8153 49.1571 52.7796 49.7179C52.7549 50.7709 52.7849 51.8245 52.8693 52.8744C52.9192 53.8141 52.8476 54.7563 52.6562 55.6777C52.378 56.9995 51.8448 58.2545 51.0864 59.3724C50.8817 59.6734 50.6589 59.9617 50.4192 60.2358C50.3323 60.3255 50.2365 60.4063 50.1333 60.4769Z" fill="#455A64"/>
<path d="M44.824 61.3124C44.87 61.182 44.9282 61.0563 44.9978 60.9368L45.5584 59.8827C46.0294 58.9689 46.7302 57.6401 47.4198 55.9581C48.2489 53.9834 48.6996 51.8705 48.7486 49.7293C48.753 49.1137 48.708 48.4987 48.614 47.8903C48.5187 47.268 48.3729 46.6345 48.2776 45.9673C48.16 45.283 48.1753 44.5826 48.3225 43.9041C48.5136 43.208 48.9032 42.5827 49.4438 42.1044C50.5034 41.1456 51.7761 40.5177 52.4321 39.3908C53.0047 38.2731 53.3424 37.0501 53.4244 35.797C53.5446 34.6484 53.8045 33.5187 54.1981 32.4331C55.0845 30.1003 56.6707 28.0988 58.7394 26.7032C59.0678 26.4807 59.4106 26.2803 59.7654 26.1033C59.8851 26.0355 60.0109 25.9792 60.1411 25.9351C60.1411 25.9631 59.6365 26.2098 58.8011 26.7985C57.6237 27.6387 56.6044 28.6808 55.7904 29.8765C55.2275 30.6962 54.7698 31.5834 54.428 32.5172C54.0472 33.6044 53.8006 34.7341 53.6935 35.8811C53.6157 37.1751 53.2702 38.439 52.6788 39.5926C51.9667 40.8036 50.6436 41.4484 49.6456 42.3959C49.1342 42.8397 48.7655 43.4249 48.586 44.0779C48.4487 44.7198 48.4354 45.382 48.5467 46.0289C48.6364 46.6793 48.7766 47.3128 48.8719 47.9464C48.9658 48.5698 49.0089 49.1998 49.0009 49.8302C48.9277 52.006 48.4366 54.1473 47.5544 56.1376C46.9792 57.4818 46.3278 58.7921 45.6033 60.0621L45.009 61.0881C44.9523 61.1669 44.8905 61.2418 44.824 61.3124Z" fill="#455A64"/>
<path d="M230.317 219.737C230.344 219.656 230.377 219.577 230.418 219.502L230.737 218.823C231.123 217.946 231.435 217.039 231.668 216.11C232.285 213.699 232.504 210.015 231.59 205.637C231.096 203.254 230.448 200.905 229.65 198.606C228.826 196.111 227.873 193.459 227.093 190.6C226.212 187.612 225.787 184.508 225.832 181.394C225.949 178.136 226.914 174.885 227.973 171.65C229.033 168.415 230.126 165.241 230.452 162.057C230.815 158.99 230.199 155.888 228.691 153.193C227.289 150.608 225.523 148.394 224.206 146.106C222.972 143.983 222.063 141.687 221.509 139.294C220.713 135.826 220.656 132.229 221.341 128.737C221.59 127.46 221.966 126.211 222.462 125.009C222.447 125.093 222.425 125.175 222.395 125.255L222.171 125.968C221.893 126.889 221.665 127.825 221.487 128.771C220.858 132.245 220.951 135.812 221.761 139.249C222.326 141.614 223.239 143.881 224.469 145.977C225.787 148.22 227.559 150.463 228.994 153.058C230.539 155.805 231.175 158.971 230.81 162.102C230.48 165.342 229.375 168.532 228.321 171.767C227.267 175.002 226.308 178.215 226.191 181.416C226.144 184.498 226.56 187.569 227.424 190.527C228.192 193.375 229.134 196.027 229.947 198.528C230.739 200.841 231.378 203.205 231.859 205.603C232.75 210.01 232.492 213.732 231.859 216.149C231.61 217.08 231.276 217.987 230.861 218.857L230.513 219.524C230.455 219.601 230.389 219.673 230.317 219.737Z" fill="#101B2B"/>
<path d="M225.989 148.366C225.989 148.366 223.303 139.788 228.119 134.764C228.157 134.724 228.205 134.694 228.258 134.68C228.31 134.665 228.367 134.665 228.419 134.68C228.472 134.695 228.52 134.724 228.557 134.765C228.594 134.806 228.619 134.856 228.63 134.91C228.888 136.328 229.207 140.645 225.989 148.366Z" fill="#C6FF3E"/>
<path d="M227.598 137.623C227.592 138.155 227.531 138.685 227.418 139.204L226.807 142.978L226.207 146.762C226.16 147.291 226.065 147.815 225.922 148.326C225.874 147.795 225.891 147.261 225.972 146.734C226.062 145.753 226.236 144.407 226.477 142.927C226.718 141.447 226.976 140.124 227.189 139.154C227.268 138.63 227.405 138.117 227.598 137.623Z" fill="#101B2B"/>
<path d="M229.145 168.605C229.145 168.605 230.788 159.763 237.392 157.577C237.445 157.559 237.501 157.555 237.554 157.567C237.608 157.579 237.658 157.606 237.697 157.644C237.737 157.683 237.765 157.731 237.778 157.785C237.792 157.838 237.79 157.894 237.774 157.947C237.336 159.315 235.598 163.284 229.145 168.605Z" fill="#C6FF3E"/>
<path d="M235.587 159.859C235.332 160.327 235.029 160.769 234.685 161.176L232.375 164.238L230.076 167.304C229.788 167.75 229.46 168.169 229.095 168.555C229.302 168.063 229.567 167.598 229.885 167.17C230.446 166.346 231.209 165.236 232.128 164.041C233.048 162.847 233.889 161.799 234.522 161.036C234.832 160.605 235.19 160.211 235.587 159.859Z" fill="#101B2B"/>
<path d="M227.357 190.779C227.357 190.779 226.359 181.842 232.044 177.833C232.088 177.801 232.141 177.782 232.195 177.778C232.25 177.774 232.304 177.785 232.353 177.81C232.402 177.835 232.443 177.873 232.471 177.919C232.5 177.966 232.515 178.02 232.515 178.075C232.498 179.51 231.993 183.81 227.357 190.779Z" fill="#C6FF3E"/>
<path d="M230.962 180.542C230.854 181.063 230.695 181.572 230.485 182.061L229.162 185.66L227.85 189.26C227.709 189.771 227.521 190.268 227.289 190.745C227.344 190.214 227.463 189.69 227.643 189.187C227.917 188.239 228.343 186.944 228.865 185.543C229.386 184.141 229.891 182.874 230.283 181.971C230.456 181.471 230.683 180.992 230.962 180.542Z" fill="#101B2B"/>
<path d="M232.335 213.06C232.335 213.06 231.657 204.089 237.482 200.288C237.528 200.257 237.581 200.239 237.636 200.236C237.692 200.233 237.746 200.246 237.795 200.273C237.843 200.3 237.883 200.339 237.91 200.388C237.937 200.436 237.95 200.491 237.948 200.546C237.875 202.009 237.213 206.287 232.335 213.06Z" fill="#C6FF3E"/>
<path d="M236.327 202.968C236.192 203.486 236.004 203.99 235.766 204.47L234.325 208.014L232.885 211.563C232.721 212.069 232.511 212.559 232.257 213.026C232.331 212.497 232.468 211.98 232.666 211.484C232.974 210.548 233.445 209.275 234.017 207.885C234.589 206.494 235.138 205.255 235.559 204.369C235.762 203.875 236.019 203.405 236.327 202.968Z" fill="#101B2B"/>
<path d="M222.137 140.83C222.137 140.83 214.17 136.67 214.013 129.713C214.011 129.657 214.024 129.603 214.051 129.554C214.078 129.506 214.117 129.466 214.166 129.44C214.214 129.413 214.269 129.4 214.324 129.403C214.379 129.405 214.433 129.423 214.478 129.455C215.661 130.273 218.941 133.093 222.137 140.83Z" fill="#C6FF3E"/>
<path d="M215.667 132.101C216.039 132.481 216.371 132.898 216.659 133.346L218.902 136.452L221.144 139.552C221.487 139.959 221.791 140.396 222.053 140.859C221.633 140.519 221.257 140.129 220.931 139.698C220.298 138.941 219.468 137.87 218.593 136.648C217.719 135.426 216.956 134.304 216.424 133.48C216.121 133.05 215.868 132.587 215.667 132.101Z" fill="#101B2B"/>
<path d="M230.693 159.237C230.693 159.237 222.485 155.564 221.907 148.635C221.901 148.58 221.911 148.524 221.935 148.474C221.959 148.425 221.996 148.382 222.043 148.353C222.09 148.323 222.143 148.307 222.199 148.306C222.254 148.305 222.308 148.32 222.356 148.349C223.589 149.111 227.037 151.729 230.693 159.237Z" fill="#C6FF3E"/>
<path d="M223.701 150.939C224.095 151.296 224.452 151.693 224.766 152.122L227.2 155.088L229.639 158.042C230.005 158.428 230.336 158.846 230.625 159.293C230.196 158.976 229.806 158.609 229.465 158.199C228.786 157.482 227.895 156.461 226.942 155.301C225.989 154.14 225.164 153.058 224.581 152.268C224.239 151.859 223.944 151.413 223.701 150.939Z" fill="#101B2B"/>
<path d="M225.972 179.813C225.972 179.813 220.337 172.81 222.978 166.357C222.998 166.306 223.032 166.262 223.076 166.229C223.12 166.196 223.172 166.176 223.226 166.171C223.281 166.165 223.336 166.175 223.385 166.199C223.434 166.223 223.476 166.261 223.505 166.307C224.262 167.546 226.14 171.442 225.972 179.813Z" fill="#C6FF3E"/>
<path d="M223.539 169.222C223.727 169.721 223.864 170.237 223.948 170.764L224.761 174.509L225.585 178.248C225.736 178.759 225.839 179.283 225.893 179.813C225.647 179.336 225.458 178.832 225.333 178.31C225.058 177.363 224.727 176.068 224.408 174.582C224.088 173.096 223.847 171.779 223.69 170.809C223.581 170.287 223.53 169.755 223.539 169.222Z" fill="#101B2B"/>
<path d="M231.55 204C231.55 204 223.41 200.165 222.944 193.246C222.94 193.191 222.951 193.136 222.976 193.087C223.001 193.038 223.04 192.997 223.087 192.969C223.134 192.94 223.188 192.926 223.243 192.926C223.298 192.926 223.352 192.942 223.398 192.971C224.621 193.74 228.018 196.414 231.55 204Z" fill="#C6FF3E"/>
<path d="M224.705 195.562C225.094 195.925 225.445 196.327 225.753 196.762L228.136 199.767L230.524 202.761C230.884 203.152 231.207 203.577 231.489 204.028C231.071 203.7 230.695 203.324 230.367 202.906C229.706 202.178 228.825 201.14 227.895 199.963C226.964 198.786 226.157 197.72 225.59 196.891C225.247 196.482 224.949 196.036 224.705 195.562Z" fill="#101B2B"/>
<path d="M247.781 168.65C247.791 168.715 247.791 168.781 247.781 168.846V169.407L247.686 171.588L247.221 179.387C246.66 182.638 244.978 186.244 242.735 189.748C241.104 192.327 239.371 194.67 237.914 196.851C236.58 198.763 235.381 200.766 234.326 202.845C233.63 204.251 233.067 205.718 232.644 207.229C232.498 207.789 232.391 208.182 232.33 208.473C232.305 208.621 232.265 208.766 232.212 208.905C232.214 208.754 232.231 208.604 232.262 208.457C232.302 208.165 232.391 207.739 232.515 207.195C232.896 205.66 233.433 204.169 234.118 202.744C235.158 200.644 236.352 198.624 237.69 196.7C239.153 194.502 240.857 192.158 242.483 189.591C244.698 186.109 246.346 182.554 246.968 179.353L247.529 171.577L247.703 169.401L247.759 168.841C247.757 168.776 247.765 168.712 247.781 168.65Z" fill="#101B2B"/>
<path d="M242.926 189.097C242.926 189.097 246.374 180.794 242.035 175.356C242.001 175.312 241.956 175.278 241.905 175.259C241.853 175.239 241.797 175.235 241.743 175.245C241.689 175.256 241.639 175.281 241.598 175.318C241.558 175.356 241.528 175.403 241.513 175.456C241.127 176.847 240.42 181.102 242.926 189.097Z" fill="#C6FF3E"/>
<path d="M242.298 178.254C242.448 178.765 242.54 179.292 242.573 179.824C242.696 180.799 242.831 182.15 242.937 183.647C243.044 185.144 243.094 186.501 243.094 187.488C243.126 188.021 243.094 188.555 242.999 189.08C242.903 188.557 242.856 188.026 242.859 187.493L242.601 183.67L242.332 179.846C242.267 179.318 242.255 178.784 242.298 178.254Z" fill="#101B2B"/>
<g opacity="0.3">
<path d="M242.926 189.097C242.926 189.097 246.374 180.794 242.035 175.356C242.001 175.312 241.956 175.278 241.905 175.259C241.853 175.239 241.797 175.235 241.743 175.245C241.689 175.256 241.639 175.281 241.598 175.318C241.558 175.356 241.528 175.403 241.513 175.456C241.127 176.847 240.42 181.102 242.926 189.097Z" fill="black"/>
</g>
<path d="M232.24 209.101C232.24 209.101 235.004 200.546 230.238 195.477C230.201 195.437 230.154 195.408 230.102 195.393C230.049 195.377 229.993 195.377 229.94 195.391C229.888 195.406 229.84 195.435 229.802 195.475C229.765 195.515 229.739 195.564 229.728 195.618C229.459 197.036 229.095 201.348 232.24 209.101Z" fill="#C6FF3E"/>
<path d="M230.737 198.343C230.927 198.84 231.06 199.357 231.135 199.884C231.337 200.849 231.584 202.183 231.808 203.663C232.032 205.143 232.195 206.494 232.279 207.476C232.355 208.005 232.366 208.541 232.313 209.073C232.175 208.56 232.085 208.034 232.044 207.504L231.483 203.714L230.922 199.924C230.807 199.404 230.745 198.874 230.737 198.343Z" fill="#101B2B"/>
<g opacity="0.3">
<path d="M232.24 209.101C232.24 209.101 235.004 200.546 230.238 195.477C230.201 195.437 230.154 195.408 230.102 195.393C230.049 195.377 229.993 195.377 229.94 195.391C229.888 195.406 229.84 195.435 229.802 195.475C229.765 195.515 229.739 195.564 229.728 195.618C229.459 197.036 229.095 201.348 232.24 209.101Z" fill="black"/>
</g>
<path d="M247.316 178.955C247.316 178.955 254.683 173.814 253.948 166.878C253.944 166.824 253.924 166.771 253.891 166.727C253.858 166.683 253.813 166.649 253.762 166.628C253.711 166.608 253.655 166.602 253.601 166.612C253.547 166.621 253.496 166.646 253.455 166.682C252.373 167.647 249.463 170.87 247.316 178.955Z" fill="#C6FF3E"/>
<g opacity="0.3">
<path d="M247.316 178.955C247.316 178.955 254.683 173.814 253.948 166.878C253.944 166.824 253.924 166.771 253.891 166.727C253.858 166.683 253.813 166.649 253.762 166.628C253.711 166.608 253.655 166.602 253.601 166.612C253.547 166.621 253.496 166.646 253.455 166.682C252.373 167.647 249.463 170.87 247.316 178.955Z" fill="black"/>
</g>
<path d="M252.603 169.463C252.455 169.976 252.25 170.47 251.992 170.937C251.571 171.823 250.96 173.04 250.248 174.357C249.536 175.675 248.852 176.852 248.32 177.682C248.06 178.148 247.746 178.581 247.383 178.972C247.582 178.479 247.826 178.006 248.112 177.559L249.945 174.195L251.773 170.831C252.003 170.348 252.281 169.89 252.603 169.463Z" fill="#101B2B"/>
<path d="M235.211 200.624C235.211 200.624 244.092 199.239 246.475 192.702C246.495 192.651 246.5 192.595 246.49 192.54C246.479 192.486 246.454 192.436 246.417 192.395C246.38 192.354 246.332 192.325 246.279 192.31C246.226 192.295 246.169 192.295 246.116 192.31C244.731 192.702 240.717 194.322 235.211 200.624Z" fill="#C6FF3E"/>
<g opacity="0.3">
<path d="M235.211 200.624C235.211 200.624 244.092 199.239 246.475 192.702C246.495 192.651 246.5 192.595 246.49 192.54C246.479 192.486 246.454 192.436 246.417 192.395C246.38 192.354 246.332 192.325 246.279 192.31C246.226 192.295 246.169 192.295 246.116 192.31C244.731 192.702 240.717 194.322 235.211 200.624Z" fill="black"/>
</g>
<path d="M244.137 194.435C243.778 194.83 243.375 195.183 242.937 195.489C242.169 196.1 241.087 196.924 239.865 197.793C238.643 198.662 237.51 199.419 236.669 199.929C236.232 200.233 235.759 200.483 235.262 200.675C235.658 200.32 236.086 200.003 236.54 199.727L239.669 197.518L242.792 195.276C243.211 194.951 243.662 194.669 244.137 194.435Z" fill="#101B2B"/>
<path d="M226.734 216.973L224.144 234.409H240.291L238.199 216.973H226.734Z" fill="#455A64"/>
<path d="M232.335 222.54C235.93 222.54 238.845 222.465 238.845 222.372C238.845 222.279 235.93 222.204 232.335 222.204C228.74 222.204 225.826 222.279 225.826 222.372C225.826 222.465 228.74 222.54 232.335 222.54Z" fill="#101B2B"/>
<path d="M232.442 223.931C236.154 223.931 239.164 223.855 239.164 223.762C239.164 223.67 236.154 223.594 232.442 223.594C228.729 223.594 225.719 223.67 225.719 223.762C225.719 223.855 228.729 223.931 232.442 223.931Z" fill="#101B2B"/>
<path d="M176.376 47.8177H175.939C175.511 47.7919 175.082 47.7919 174.655 47.8177C173.01 47.9126 171.393 48.292 169.878 48.939C167.472 49.9478 165.378 51.5792 163.812 53.6653C162.845 54.9674 162.126 56.4366 161.692 57.9992C160.712 61.7278 161.248 65.6931 163.184 69.0273C163.711 69.9466 164.351 70.7962 165.09 71.5559C165.835 72.363 166.706 73.0445 167.669 73.5742C168.655 74.1298 169.772 74.4106 170.904 74.3872C172.07 74.3736 173.188 73.9235 174.038 73.1257C174.865 72.257 175.315 71.0958 175.288 69.8963C175.281 68.662 174.889 67.4605 174.167 66.4595C172.709 64.4131 170.36 63.0395 167.854 62.2938C165.255 61.5653 162.511 61.5266 159.893 62.1817C158.556 62.5274 157.267 63.0397 156.058 63.7067C154.837 64.3973 153.727 65.2687 152.767 66.2913C152.537 66.5604 152.273 66.8015 152.072 67.0874L151.438 67.9396C150.263 69.7544 149.498 71.8035 149.195 73.9443C148.788 76.7973 149.176 79.7074 150.317 82.3541C151.405 84.9428 153.306 87.1074 155.733 88.5213C156.906 89.1963 158.217 89.5951 159.567 89.6875C160.89 89.7598 162.206 89.4441 163.352 88.7792C164.488 88.1485 165.388 87.1643 165.914 85.9759C166.389 84.8033 166.409 83.4958 165.97 82.3092C165.531 81.1529 164.805 80.1267 163.862 79.3265C162.952 78.5359 161.9 77.9252 160.762 77.5268C158.546 76.8302 156.177 76.7893 153.938 77.4091C151.843 77.9778 149.919 79.0498 148.332 80.532C146.889 81.9158 145.79 83.6192 145.125 85.505C143.955 88.7765 144.007 92.3604 145.271 95.5968C146.257 98.0141 147.848 100.138 149.891 101.764C151.172 102.798 152.603 103.632 154.135 104.236C154.662 104.438 155.065 104.578 155.346 104.657L155.761 104.797L155.335 104.691C155.054 104.623 154.645 104.489 154.107 104.298C152.557 103.713 151.108 102.89 149.812 101.859C147.742 100.241 146.124 98.1171 145.114 95.6921C143.823 92.4249 143.755 88.8013 144.923 85.4881C145.596 83.5757 146.708 81.8476 148.169 80.4423C149.778 78.9311 151.732 77.836 153.86 77.2521C156.146 76.6123 158.569 76.6493 160.835 77.3586C162.005 77.7664 163.087 78.3923 164.025 79.2032C165.003 80.0315 165.755 81.0943 166.211 82.2924C166.674 83.5421 166.654 84.9196 166.155 86.1553C165.606 87.3956 164.667 88.423 163.481 89.0819C162.292 89.7719 160.929 90.1011 159.556 90.0294C158.163 89.9355 156.809 89.5252 155.598 88.8296C153.121 87.3931 151.177 85.1916 150.059 82.5559C148.892 79.8612 148.492 76.8966 148.904 73.9891C149.215 71.8052 149.999 69.7157 151.202 67.8667L151.847 66.9921C152.055 66.695 152.324 66.4315 152.559 66.1792C153.541 65.136 154.675 64.2476 155.923 63.5441C157.161 62.863 158.479 62.3412 159.848 61.9911C162.516 61.3235 165.313 61.364 167.96 62.1088C170.517 62.8713 172.911 64.2673 174.419 66.3866C175.176 67.431 175.587 68.6854 175.597 69.9748C175.622 71.2448 175.142 72.4728 174.262 73.3892C173.365 74.2312 172.185 74.7055 170.954 74.718C169.777 74.7407 168.615 74.4464 167.59 73.8658C166.606 73.3225 165.717 72.6239 164.955 71.7969C164.205 71.0216 163.555 70.1551 163.021 69.2179C162.049 67.5383 161.417 65.6831 161.163 63.7589C160.909 61.8347 161.038 59.8793 161.541 58.0048C161.971 56.4005 162.698 54.8907 163.683 53.5532C165.274 51.4405 167.404 49.7945 169.85 48.7876C171.38 48.1545 173.011 47.7977 174.666 47.7336C175.095 47.7044 175.526 47.7044 175.955 47.7336L176.376 47.8177Z" fill="#101B2B"/>
<path d="M195.102 103.917H116.493V164.546H195.102V103.917Z" fill="#C6FF3E"/>
<path d="M116.493 103.917L131.008 117.462H208.289L195.102 103.917H116.493Z" fill="#C6FF3E"/>
<path d="M116.493 103.917L195.08 103.776H195.142L195.187 103.821L208.239 117.221L208.373 117.361L208.614 117.608H208.267L130.991 117.552H130.958L116.499 103.945L131.076 117.4H131.014L208.289 117.344L208.182 117.591L208.048 117.451L195.001 104.045L195.102 104.09L116.493 103.917Z" fill="#101B2B"/>
<path d="M140.102 131.877C139.681 131.893 139.283 132.074 138.993 132.38C138.704 132.686 138.546 133.094 138.554 133.515C138.563 133.937 138.736 134.338 139.036 134.633C139.337 134.928 139.742 135.094 140.163 135.094C140.585 135.094 140.989 134.928 141.29 134.633C141.591 134.338 141.764 133.937 141.772 133.515C141.78 133.094 141.623 132.686 141.333 132.38C141.044 132.074 140.646 131.893 140.225 131.877" fill="#101B2B"/>
<path d="M158.637 131.877C158.216 131.893 157.818 132.074 157.529 132.38C157.239 132.686 157.082 133.094 157.09 133.515C157.098 133.937 157.271 134.338 157.572 134.633C157.873 134.928 158.277 135.094 158.699 135.094C159.12 135.094 159.525 134.928 159.826 134.633C160.126 134.338 160.299 133.937 160.307 133.515C160.316 133.094 160.158 132.686 159.869 132.38C159.579 132.074 159.181 131.893 158.76 131.877" fill="#101B2B"/>
<path d="M158.783 146.386C158.463 145.145 157.936 143.966 157.224 142.899C156.436 141.759 155.425 140.79 154.253 140.051C152.838 139.112 151.187 138.589 149.489 138.542C147.791 138.496 146.114 138.927 144.649 139.787C143.438 140.461 142.376 141.373 141.526 142.467C140.759 143.492 140.17 144.639 139.782 145.859C139.785 145.77 139.8 145.681 139.827 145.596C139.88 145.343 139.949 145.094 140.035 144.85C140.341 143.948 140.79 143.1 141.364 142.338C142.207 141.195 143.281 140.24 144.514 139.535C146.017 138.636 147.745 138.183 149.496 138.231C151.246 138.279 152.947 138.824 154.399 139.804C155.591 140.572 156.611 141.58 157.393 142.764C157.923 143.556 158.324 144.426 158.581 145.343C158.652 145.592 158.706 145.845 158.744 146.1C158.772 146.193 158.785 146.289 158.783 146.386Z" fill="#101B2B"/>
<path opacity="0.5" d="M116.667 104.584L130.571 122.211H195.102V117.462H131.008L116.667 104.584Z" fill="black"/>
<path d="M179.6 164.411C179.521 164.411 179.454 153.865 179.454 140.864C179.454 127.862 179.521 117.316 179.6 117.316C179.678 117.316 179.746 127.862 179.746 140.864C179.746 153.865 179.678 164.411 179.6 164.411Z" fill="#101B2B"/>
<path d="M191.94 150.665H185.01V158.497H191.94V150.665Z" fill="#F5F5F5"/>
<path d="M116.493 103.917L100.351 117.462H116.493V103.917Z" fill="#C6FF3E"/>
<g opacity="0.4">
<path d="M116.493 103.917L100.351 117.462H116.493V103.917Z" fill="black"/>
</g>
<path d="M197.423 164.546H107.04V234.258H197.423V164.546Z" fill="#C6FF3E"/>
<path opacity="0.3" d="M197.423 164.546H107.04V234.258H197.423V164.546Z" fill="black"/>
<path d="M174.773 233.765C174.694 233.765 174.627 218.223 174.627 199.06C174.627 179.897 174.694 164.355 174.773 164.355C174.851 164.355 174.919 179.891 174.919 199.06C174.919 218.229 174.857 233.765 174.773 233.765Z" fill="#101B2B"/>
<path d="M189.759 218.392H182.829V226.224H189.759V218.392Z" fill="#F5F5F5"/>
<path d="M144.879 164.725H134.613V179.6H144.879V164.725Z" fill="#101B2B"/>
<path d="M144.879 219.176H134.613V234.05H144.879V219.176Z" fill="#101B2B"/>
<path d="M196.633 164.546H196.403H195.725H193.112L183.513 164.591L151.842 164.63L120.165 164.585L110.567 164.54H107.954H107.276H107.046H107.276H107.954H110.567L120.165 164.496L151.842 164.451L183.513 164.496L193.112 164.54H195.725H196.403L196.633 164.546Z" fill="#101B2B"/>
<path d="M41.7349 43.8542L31.8954 41.4321H31.9683C29.4253 43.0463 26.486 43.9271 23.4744 43.9775C21.6876 43.9785 19.9109 43.7102 18.2042 43.1814C16.3449 42.5901 14.6072 41.669 13.0742 40.4622C9.63899 37.7766 7.4074 33.8395 6.86777 29.5126C6.567 27.1462 6.78973 24.7426 7.52021 22.4717C8.25069 20.2008 9.47108 18.1181 11.0951 16.3708C11.9497 15.4402 12.905 14.6072 13.9432 13.8871C14.4759 13.5563 14.9973 13.22 15.5467 12.9284L16.3821 12.5247L16.7914 12.3453L17.2231 12.1883C19.4752 11.3194 21.8898 10.952 24.2985 11.1119C27.5258 11.3146 30.6209 12.4678 33.194 14.4262C35.767 16.3847 37.7029 19.0609 38.7578 22.1176C39.3418 23.8295 39.6484 25.6238 39.6661 27.4326C39.6815 30.4377 38.8667 33.3887 37.3113 35.9601V35.8929L41.7349 43.8542L37.16 35.9545V35.9097V35.8648C38.6701 33.3213 39.4553 30.4129 39.4306 27.455C39.4037 25.6736 39.0933 23.9079 38.5112 22.2241C37.4709 19.2208 35.5663 16.5918 33.0366 14.6676C30.5069 12.7434 27.465 11.6097 24.2929 11.409C21.9298 11.2541 19.5613 11.6157 17.352 12.4687L16.9259 12.6257L16.5166 12.8219L15.6981 13.22C15.1374 13.5059 14.6497 13.8367 14.1226 14.1619C13.1013 14.867 12.1612 15.6831 11.3194 16.5951C9.80924 18.2354 8.65492 20.1704 7.92902 22.2785C7.20312 24.3866 6.92136 26.6222 7.10146 28.8445C7.28156 31.0667 7.91962 33.2277 8.97551 35.1914C10.0314 37.1551 11.4823 38.8791 13.2368 40.2548C14.744 41.4468 16.4531 42.3583 18.2827 42.9459C19.9618 43.4692 21.71 43.7375 23.4688 43.742C26.4445 43.7067 29.3534 42.8554 31.8786 41.2808H31.9122H31.9515L41.7349 43.8542Z" fill="#101B2B"/>
<path d="M21.8373 20.1946L22.3979 28.4306C22.4191 28.7547 22.5578 29.0599 22.788 29.2891C23.0182 29.5182 23.324 29.6555 23.6482 29.6753C23.9859 29.6902 24.3167 29.5764 24.5738 29.3568C24.8308 29.1372 24.995 28.8282 25.033 28.4923L25.9469 20.2283C25.9619 20.0814 25.9457 19.9331 25.8994 19.7929C25.8531 19.6528 25.7778 19.5239 25.6783 19.4149C25.5788 19.3059 25.4574 19.2191 25.322 19.1602C25.1867 19.1014 25.0404 19.0717 24.8928 19.0733H22.8857C22.7416 19.073 22.5991 19.1023 22.4669 19.1595C22.3347 19.2167 22.2157 19.3005 22.1173 19.4057C22.019 19.5109 21.9433 19.6352 21.8951 19.771C21.8469 19.9067 21.8272 20.0509 21.8373 20.1946Z" fill="#008F70"/>
<path d="M25.8131 34.3036C26.1625 33.2516 25.5929 32.1155 24.5408 31.7662C23.4888 31.4168 22.3528 31.9865 22.0034 33.0385C21.6541 34.0905 22.2237 35.2266 23.2757 35.5759C24.3277 35.9253 25.4638 35.3556 25.8131 34.3036Z" fill="#008F70"/>
</svg>
