<svg width="12" height="12" viewBox="0 0 12 12" fill="none" xmlns="http://www.w3.org/2000/svg">
<path d="M9.00286 10.8611C8.85507 10.6979 8.67967 10.5609 8.48992 10.5248C8.48992 10.5237 8.49011 10.5225 8.49011 10.5213C8.49011 10.2334 8.25162 10 7.95739 10H4.04218C3.74797 10 3.50946 10.2334 3.50946 10.5213C3.50946 10.5225 3.50962 10.5236 3.50965 10.5248C3.3199 10.5609 3.14449 10.6979 2.99671 10.8611C2.75276 11.1304 2.94878 11.5556 3.31656 11.5556H8.68303C9.05078 11.5556 9.2468 11.1304 9.00286 10.8611Z" fill="#E2A042"/>
<path d="M11.6531 1.89307C11.3697 1.55392 10.9538 1.35939 10.5123 1.35939H9.93803V0.666626H2.07518V1.35939H1.48776C1.04617 1.35939 0.630378 1.55389 0.346971 1.89307C0.0635652 2.23222 -0.0543799 2.67641 0.0234491 3.11176L0.483166 5.68387C0.610272 6.39503 1.2261 6.91121 1.94748 6.91121H3.78092C3.83312 6.91121 3.88492 6.90828 3.93624 6.90292C4.17106 7.17027 4.4219 7.43326 4.68513 7.69692C4.87647 7.88856 5.04822 8.04653 5.20732 8.17111C5.16309 8.38988 5.11335 8.60749 5.05814 8.82375L4.98909 9.08609C4.96425 9.17262 4.94281 9.25779 4.91661 9.34019C4.88923 9.4226 4.85185 9.50226 4.8103 9.5778C4.7684 9.65335 4.72443 9.72476 4.68855 9.7907C4.65544 9.84894 4.62565 9.90902 4.59935 9.97064C4.58888 9.99743 4.57779 10.0225 4.57051 10.0457C4.56349 10.0689 4.55857 10.0902 4.55678 10.1094C4.54788 10.1863 4.57744 10.2302 4.57744 10.2302C4.72534 10.4506 4.96437 10.6387 5.27906 10.7589C6.06454 11.0588 7.02392 10.8221 7.42192 10.2302C7.42192 10.2302 7.45147 10.1863 7.44257 10.1094C7.44079 10.0902 7.43586 10.0689 7.42884 10.0457C7.42159 10.0225 7.41047 9.99743 7.40001 9.97064C7.3737 9.90902 7.34392 9.84894 7.3108 9.7907C7.27492 9.72476 7.23095 9.65335 7.18905 9.5778C7.14751 9.50226 7.1101 9.4226 7.08274 9.34019C7.05654 9.25779 7.03513 9.17262 7.01027 9.08609L6.94122 8.82375C6.88679 8.61056 6.83767 8.39604 6.79389 8.18041C6.95635 8.05442 7.13192 7.89337 7.32808 7.69692C7.591 7.43359 7.84152 7.17094 8.07608 6.90394C8.1236 6.90865 8.17132 6.91108 8.21908 6.91121H10.0525C10.7739 6.91121 11.3897 6.39505 11.5169 5.68384L11.9765 3.11176C12.0544 2.67643 11.9365 2.23222 11.6531 1.89307ZM1.94748 5.89607C1.83622 5.89617 1.72848 5.85702 1.64316 5.78551C1.55784 5.71399 1.50039 5.61467 1.48088 5.50497L1.02114 2.93289C0.987211 2.74297 1.07116 2.60807 1.12424 2.54456C1.17732 2.48105 1.2951 2.37451 1.48776 2.37451H2.07577C2.09097 3.80794 2.5012 4.91392 3.15541 5.89607H1.94748ZM10.9789 2.93289L10.5192 5.50497C10.4997 5.61468 10.4422 5.71399 10.3569 5.78551C10.2716 5.85703 10.1638 5.89618 10.0526 5.8961H8.85782C9.51203 4.91394 9.92228 3.80796 9.93746 2.37453H10.5123C10.7049 2.37453 10.8227 2.48107 10.8758 2.54458C10.9289 2.60807 11.0128 2.74297 10.9789 2.93289Z" fill="#FFB636"/>
<path d="M3.11133 11.5761C3.42474 11.8813 4.64226 12 5.97007 12C7.29788 12 8.65391 11.754 8.86704 11.5465C9.08017 11.3389 7.6792 11.3334 7.6792 11.3334L3.11133 11.5761Z" fill="#E2A042"/>
<path d="M6 1.33333C8.20914 1.33333 10 1.03486 10 0.666667C10 0.298477 8.20914 0 6 0C3.79086 0 2 0.298477 2 0.666667C2 1.03486 3.79086 1.33333 6 1.33333Z" fill="#FFD469"/>
<path d="M8.63262 4.44438C8.58368 4.44438 8.53395 4.4358 8.48554 4.41767C8.27366 4.33838 8.16777 4.10649 8.24905 3.89974C8.55332 3.12567 8.52471 2.67778 8.49445 2.20362C8.48033 1.98261 8.65251 1.79227 8.87899 1.77849C9.10593 1.76479 9.30055 1.93275 9.31465 2.15373C9.35432 2.77483 9.35756 3.31891 9.01633 4.1869C8.95362 4.34642 8.79783 4.44438 8.63262 4.44438Z" fill="#FFD469"/>
</svg>
